<svg xmlns="http://www.w3.org/2000/svg" width="2770.509" height="2117.667" viewBox="0 0 2770.509 2117.667">
  <g id="clinic" opacity="0.8">
    <path id="Tracé_1354" data-name="Tracé 1354" d="M2675.959,551.2H2299.077a94.663,94.663,0,0,0-94.554,94.555V826.268h-209.25V154.878a94.663,94.663,0,0,0-94.555-94.555H861.673a94.663,94.663,0,0,0-94.555,94.555v671.39H549.785V645.752A94.663,94.663,0,0,0,455.23,551.2H94.555A94.663,94.663,0,0,0,0,645.752V2083.438a94.663,94.663,0,0,0,94.555,94.554H1981.6a40.532,40.532,0,0,0,13.663-78.688V907.317h209.25V2096.944H2181.19a40.524,40.524,0,1,0,0,81.048h494.764a94.663,94.663,0,0,0,94.555-94.554V645.752a94.656,94.656,0,0,0-94.549-94.555ZM848.166,1369.744h171.685v146.9H848.166ZM81.048,1062.476H295.622v146.9H81.048Zm0,368.094H295.622v146.9H81.048Zm0,652.867V1658.521H314.534a62.208,62.208,0,0,0,62.136-62.136V1411.658a62.208,62.208,0,0,0-62.136-62.136H81.048v-59.1H314.534a62.208,62.208,0,0,0,62.136-62.136V1043.564a62.208,62.208,0,0,0-62.136-62.136H81.048V645.752a13.517,13.517,0,0,1,13.506-13.506h360.67a13.517,13.517,0,0,1,13.506,13.506V1729.591a40.524,40.524,0,1,0,81.048,0V907.317H767.113V2096.944H549.779v-177.9a40.524,40.524,0,1,0-81.048,0v177.9H94.549a13.519,13.519,0,0,1-13.5-13.506ZM1234.4,2096.944V1781.792a18.962,18.962,0,0,1,18.945-18.945h266.505a18.962,18.962,0,0,1,18.944,18.945v315.151Zm385.442,0V1781.792a100.109,100.109,0,0,0-99.993-99.993H1253.349a100.109,100.109,0,0,0-99.993,99.993v315.151H848.166V1597.694h190.6a62.209,62.209,0,0,0,62.136-62.136V1350.837a62.209,62.209,0,0,0-62.136-62.137h-190.6V154.879a13.517,13.517,0,0,1,13.506-13.506H1900.713a13.517,13.517,0,0,1,13.506,13.506V1288.7h-190.6a62.209,62.209,0,0,0-62.136,62.136v184.721a62.208,62.208,0,0,0,62.136,62.136h190.6v499.25H1619.847Zm294.373-580.3H1742.534v-146.9h171.685Zm775.246-307.267H2474.891v-146.9h214.574Zm-13.506,887.565H2285.566V645.752a13.517,13.517,0,0,1,13.506-13.506h376.882a13.517,13.517,0,0,1,13.506,13.506V981.428H2455.974a62.208,62.208,0,0,0-62.136,62.136v184.721a62.209,62.209,0,0,0,62.136,62.136H2689.46v59.1H2455.974a62.208,62.208,0,0,0-62.136,62.136v184.726a62.208,62.208,0,0,0,62.136,62.136H2689.46v424.917A13.512,13.512,0,0,1,2675.959,2096.944Zm13.506-519.471H2474.891v-146.9h214.574Z" transform="translate(0 -60.324)" fill="#6e6e6e"/>
    <path id="Tracé_1355" data-name="Tracé 1355" d="M1071.338,554.864A446.471,446.471,0,0,0,991.7,299.49a40.524,40.524,0,0,0-66.633,46.141,365.775,365.775,0,0,1,65.225,209.228c0,202.908-165.078,367.986-367.985,367.986S254.317,757.766,254.317,554.859,419.4,186.867,622.3,186.867a368.051,368.051,0,0,1,179.282,46.547,40.523,40.523,0,1,0,39.55-70.74A449.318,449.318,0,0,0,622.3,105.819c-247.6,0-449.034,201.441-449.034,449.04S374.7,1003.893,622.3,1003.893,1071.338,802.462,1071.338,554.864Z" transform="translate(764.295 140.362)" fill="#6e6e6e"/>
    <path id="Tracé_1356" data-name="Tracé 1356" d="M593.7,276.936V196.223a55.724,55.724,0,0,0-55.659-55.659h-138a55.725,55.725,0,0,0-55.664,55.659v80.713H263.666A55.724,55.724,0,0,0,208.007,332.6v138a55.725,55.725,0,0,0,55.659,55.664h80.713v80.708a55.726,55.726,0,0,0,55.664,55.665H538.05a55.726,55.726,0,0,0,55.659-55.665V526.26h80.713A55.725,55.725,0,0,0,730.082,470.6v-138a55.724,55.724,0,0,0-55.659-55.659Zm55.324,168.271h-90.8a45.618,45.618,0,0,0-45.567,45.568v90.8H425.439v-90.8a45.619,45.619,0,0,0-45.568-45.568h-90.8V357.984h90.8a45.618,45.618,0,0,0,45.568-45.568v-90.8h87.222v90.8a45.618,45.618,0,0,0,45.567,45.568h90.8Z" transform="translate(917.552 293.627)" fill="#6e6e6e"/>
    <path id="Tracé_1357" data-name="Tracé 1357" d="M617.494,287.331H275.28a62.208,62.208,0,0,0-62.136,62.136V534.188a62.208,62.208,0,0,0,62.136,62.136H617.494a62.209,62.209,0,0,0,62.136-62.136V349.467A62.206,62.206,0,0,0,617.494,287.331ZM598.581,515.282H294.187V368.38H598.581Z" transform="translate(940.212 941.04)" fill="#6e6e6e"/>
  </g>
</svg>
