<svg xmlns="http://www.w3.org/2000/svg" width="1638.883" height="1161.684" viewBox="0 0 1638.883 1161.684">
  <path id="comments" d="M1197.859,449.555c0-246.178-268.2-445.742-598.93-445.742S0,203.377,0,449.555C0,597.5,96.851,728.573,245.94,809.647c-.429,1.287-118.775,216.627-118.775,216.627s361.379-137.841,362.38-138.413a797.933,797.933,0,0,0,109.386,7.388C929.661,895.249,1197.859,695.685,1197.859,449.555Zm441.023,139.27c0-246.13-252.469-443.931-525.767-445.694C1504.9,533.394,1043.48,949.2,667.421,949.2c0,0,41.8,85.316,372.532,85.316a806.029,806.029,0,0,0,109.386-7.435c1,.667,362.427,138.413,362.427,138.413S1393.372,950.2,1392.991,948.917c149.042-81.074,245.892-212.195,245.892-360.092Z" transform="translate(0 -3.813)" fill="#fff"/>
</svg>
