<svg xmlns="http://www.w3.org/2000/svg" width="1247.865" height="1143.52" viewBox="0 0 1247.865 1143.52">
  <path id="home-active" d="M1223.67,460.281l-143.2-114.557V94.109a20.5,20.5,0,0,0-20.456-20.457H914.776A20.5,20.5,0,0,0,894.32,94.109V196.391L671.343,18.42h0a2,2,0,0,1-2.046-2.046c-2.045,0-2.045-2.046-4.091-2.046a2,2,0,0,1-2.046-2.046c-2.046,0-2.046-2.046-4.091-2.046a2,2,0,0,1-2.046-2.046c-2.046,0-2.046-2.046-4.091-2.046s-2.046,0-4.091-2.046H609.974c-2.046,0-2.046,0-4.091,2.046h-2.046c-2.046,0-2.046,0-4.091,2.046a2,2,0,0,0-2.046,2.046c-2.046,0-2.046,2.046-4.091,2.046s-2.046,2.046-4.091,2.046l-2.046,2.046c-2.046,0-2.046,2.046-4.091,2.046a2,2,0,0,0-2.046,2.046h0L29.008,460.281C-1.677,484.829-7.814,529.833,18.779,560.518c14.32,18.411,34.776,26.593,55.233,26.593,16.365,0,30.685-6.137,45-16.365l49.1-38.867v554.372c0,32.731,26.593,61.37,61.37,61.37H495.417v-425.5H747.032v425.5H1019.1c32.73,0,61.369-26.593,61.369-61.37V529.833l53.187,42.959a71.487,71.487,0,0,0,45,16.365c20.456,0,42.958-10.228,55.233-26.593C1258.446,529.833,1254.355,484.829,1223.67,460.281Z" transform="translate(-1.979 -4.1)" fill="#005ea3"/>
</svg>
