<svg xmlns="http://www.w3.org/2000/svg" width="2273.396" height="2273.374" viewBox="0 0 2273.396 2273.374">
  <g id="hospital-service-infirmary-sanatorium-sanitarium" opacity="0.81">
    <path id="Tracé_1340" data-name="Tracé 1340" d="M2237.5,949.232a37.89,37.89,0,0,0,37.89-37.89V759.784a37.89,37.89,0,0,0-37.89-37.89H1820.713V418.776h37.89a37.89,37.89,0,0,0,37.89-37.89V229.327a37.89,37.89,0,0,0-37.89-37.89H1419.461a302.777,302.777,0,0,0-561.526,0H418.792a37.89,37.89,0,0,0-37.89,37.89V380.886a37.89,37.89,0,0,0,37.89,37.89h37.89V721.894H39.894A37.89,37.89,0,0,0,2,759.784V911.343a37.89,37.89,0,0,0,37.89,37.89h37.89V2155.264l-62.518,53.424a37.89,37.89,0,0,0,24.628,66.686H2237.5a37.89,37.89,0,0,0,24.629-66.686l-62.518-53.424V949.232ZM1439.163,267.217h381.55V343h-381.55a312.972,312.972,0,0,0,2.652-37.89,312.826,312.826,0,0,0-2.652-37.89Zm381.55,682.016h303.118V2090.093l-41.679-35.616a341.007,341.007,0,0,0-222.034-82.221h-39.405ZM1138.7,77.768c125.556,0,227.339,101.783,227.339,227.339S1264.253,532.445,1138.7,532.445,911.359,430.662,911.359,305.106,1013.142,77.768,1138.7,77.768Zm0,530.457a303.118,303.118,0,0,0,280.763-189.449h325.473v1553.48H1593.375V1328.13a37.89,37.89,0,0,0-37.89-37.89H721.91a37.89,37.89,0,0,0-37.89,37.89v644.126H532.461V418.776H857.934A303.118,303.118,0,0,0,1138.7,608.224Zm378.9,757.8v606.236H1176.587V1366.02Zm-416.787,0v606.236H759.8V1366.02ZM456.682,267.217h381.55a312.886,312.886,0,0,0-2.652,37.89A312.89,312.89,0,0,0,838.232,343H456.682ZM77.784,797.673h378.9v75.78H77.784Zm378.9,151.559V1972.256H417.276a340.983,340.983,0,0,0-222.006,82.2l-41.707,35.641V949.232ZM142.2,2199.595l102.3-87.526a265.494,265.494,0,0,1,172.777-64.034H1860.119a265.492,265.492,0,0,1,172.777,64.034l102.3,87.525ZM1820.713,873.453v-75.78h378.9v75.78Z" transform="translate(-2 -2)" fill="#6e6e6e"/>
    <path id="Tracé_1341" data-name="Tracé 1341" d="M8,31H159.559v75.78H8Z" transform="translate(219.343 1067.791)" fill="#6e6e6e"/>
    <path id="Tracé_1342" data-name="Tracé 1342" d="M8,37H159.559v75.779H8Z" transform="translate(219.343 1289.13)" fill="#6e6e6e"/>
    <path id="Tracé_1343" data-name="Tracé 1343" d="M8,43H159.559v75.779H8Z" transform="translate(219.343 1510.468)" fill="#6e6e6e"/>
    <path id="Tracé_1344" data-name="Tracé 1344" d="M8,48H159.559v75.78H8Z" transform="translate(219.343 1694.917)" fill="#6e6e6e"/>
    <path id="Tracé_1345" data-name="Tracé 1345" d="M52,31H203.559v75.78H52Z" transform="translate(1842.493 1067.791)" fill="#6e6e6e"/>
    <path id="Tracé_1346" data-name="Tracé 1346" d="M52,37H203.559v75.779H52Z" transform="translate(1842.493 1289.13)" fill="#6e6e6e"/>
    <path id="Tracé_1347" data-name="Tracé 1347" d="M52,43H203.559v75.779H52Z" transform="translate(1842.493 1510.468)" fill="#6e6e6e"/>
    <path id="Tracé_1348" data-name="Tracé 1348" d="M52,48H203.559v75.78H52Z" transform="translate(1842.493 1694.917)" fill="#6e6e6e"/>
    <path id="Tracé_1349" data-name="Tracé 1349" d="M35,45h75.78V120.78H35Z" transform="translate(1215.367 1584.248)" fill="#6e6e6e"/>
    <path id="Tracé_1350" data-name="Tracé 1350" d="M27,45h75.78V120.78H27Z" transform="translate(920.249 1584.248)" fill="#6e6e6e"/>
    <path id="Tracé_1351" data-name="Tracé 1351" d="M331.118,119.669v75.78H217.449V309.118H141.669V195.449H28v-75.78H141.669V6h75.779V119.669Z" transform="translate(957.138 145.547)" fill="#6e6e6e"/>
    <path id="Tracé_1352" data-name="Tracé 1352" d="M966.244,20H56.89A37.89,37.89,0,0,0,19,57.89V209.449a37.89,37.89,0,0,0,37.89,37.89H966.244a37.89,37.89,0,0,0,37.89-37.89V57.89A37.89,37.89,0,0,0,966.244,20Zm-37.89,151.559H94.78V95.78H928.354Z" transform="translate(625.131 662.004)" fill="#6e6e6e"/>
    <path id="Tracé_1353" data-name="Tracé 1353" d="M966.244,28H56.89A37.89,37.89,0,0,0,19,65.89V217.449a37.89,37.89,0,0,0,37.89,37.89H966.244a37.89,37.89,0,0,0,37.89-37.89V65.89A37.89,37.89,0,0,0,966.244,28Zm-37.89,151.559H94.78v-75.78H928.354Z" transform="translate(625.131 957.122)" fill="#6e6e6e"/>
  </g>
</svg>
