<svg xmlns="http://www.w3.org/2000/svg" width="1006.926" height="1118.807" viewBox="0 0 1006.926 1118.807">
  <path id="ic_assignment-active" d="M898.046,112.881H664.215C640.72,47.99,579.186,1,506.463,1S372.206,47.99,348.711,112.881H114.881C53.346,112.881,3,163.227,3,224.761v783.165c0,61.534,50.346,111.88,111.881,111.88H898.046c61.534,0,111.88-50.346,111.88-111.88V224.761C1009.926,163.227,959.58,112.881,898.046,112.881Zm-391.583,0a55.94,55.94,0,1,1-55.94,55.94A56.1,56.1,0,0,1,506.463,112.881ZM618.344,896.046H226.761V784.165H618.344ZM786.165,672.285h-559.4V560.4h559.4Zm0-223.762h-559.4V336.642h559.4Z" transform="translate(-3 -1)" fill="#005ea3"/>
</svg>
