<svg id="kit" xmlns="http://www.w3.org/2000/svg" width="1499.235" height="1281.661" viewBox="0 0 1499.235 1281.661">
  <path id="Tracé_21" data-name="Tracé 21" d="M1375.782,248.1H1103.915V219.615c0-116.514-95.8-212.315-217.494-212.315H619.733c-119.1,0-217.494,95.8-217.494,212.315V248.1H132.961C60.463,248.1,3.5,307.649,3.5,377.557V1159.5c0,72.5,59.552,129.461,129.461,129.461H1373.193c72.5,0,129.461-59.552,129.461-129.461V377.557C1505.243,305.059,1445.691,248.1,1375.782,248.1ZM562.77,219.615c0-28.481,25.892-51.784,56.963-51.784H889.011c31.071,0,56.963,23.3,56.963,51.784V248.1H562.77ZM749.193,1125.84c-196.78,0-357.311-160.531-357.311-357.311S552.413,411.217,749.193,411.217,1106.5,571.748,1106.5,768.528,948.562,1125.84,749.193,1125.84Z" transform="translate(-3.5 -7.3)" fill="#9c9c9c"/>
  <path id="Tracé_22" data-name="Tracé 22" d="M336.494,27.5H181.142V185.442H23.2V343.384H181.142V501.326H336.494V343.384H497.026V185.442H336.494Z" transform="translate(486.875 495.521)" fill="#9c9c9c"/>
</svg>
