<svg xmlns="http://www.w3.org/2000/svg" width="1548.372" height="1327.176" viewBox="0 0 1548.372 1327.176">
  <path id="list" d="M1265.617,559.39H624.149c-61.036,0-66.359,49.424-66.359,110.6s5.323,110.6,66.359,110.6h641.468c61.036,0,66.359-49.423,66.359-110.6S1326.654,559.39,1265.617,559.39Zm221.2,552.99H624.149c-61.036,0-66.359,49.424-66.359,110.6s5.322,110.6,66.359,110.6h862.664c61.036,0,66.359-49.424,66.359-110.6S1547.85,1112.38,1486.813,1112.38ZM624.149,227.6h862.664c61.036,0,66.359-49.424,66.359-110.6S1547.85,6.4,1486.813,6.4H624.149C563.113,6.4,557.79,55.823,557.79,117S563.113,227.6,624.149,227.6ZM270.235,559.39H71.159c-61.036,0-66.359,49.424-66.359,110.6s5.323,110.6,66.359,110.6H270.235c61.036,0,66.359-49.423,66.359-110.6S331.272,559.39,270.235,559.39Zm0,552.99H71.159c-61.036,0-66.359,49.424-66.359,110.6s5.323,110.6,66.359,110.6H270.235c61.036,0,66.359-49.424,66.359-110.6S331.272,1112.38,270.235,1112.38Zm0-1105.98H71.159C10.123,6.4,4.8,55.823,4.8,117s5.323,110.6,66.359,110.6H270.235c61.036,0,66.359-49.424,66.359-110.6S331.272,6.4,270.235,6.4Z" transform="translate(-4.8 -6.4)" fill="#9c9c9c"/>
</svg>
