<svg xmlns="http://www.w3.org/2000/svg" width="1324.298" height="1135.112" viewBox="0 0 1324.298 1135.112">
  <path id="list-active" d="M1083.157,479.363H534.519c-52.2,0-56.756,42.271-56.756,94.593s4.552,94.593,56.756,94.593h548.637c52.2,0,56.756-42.271,56.756-94.593S1135.36,479.363,1083.157,479.363Zm189.185,472.963H534.519c-52.2,0-56.756,42.271-56.756,94.593s4.552,94.593,56.756,94.593h737.823c52.2,0,56.756-42.271,56.756-94.593S1324.546,952.327,1272.342,952.327ZM534.519,195.585h737.823c52.2,0,56.756-42.271,56.756-94.593S1324.546,6.4,1272.342,6.4H534.519c-52.2,0-56.756,42.271-56.756,94.593S482.316,195.585,534.519,195.585Zm-302.7,283.778H61.556c-52.2,0-56.756,42.271-56.756,94.593s4.552,94.593,56.756,94.593H231.822c52.2,0,56.756-42.271,56.756-94.593S284.026,479.363,231.822,479.363Zm0,472.963H61.556c-52.2,0-56.756,42.271-56.756,94.593s4.552,94.593,56.756,94.593H231.822c52.2,0,56.756-42.271,56.756-94.593S284.026,952.327,231.822,952.327Zm0-945.927H61.556C9.352,6.4,4.8,48.671,4.8,100.993s4.552,94.593,56.756,94.593H231.822c52.2,0,56.756-42.271,56.756-94.593S284.026,6.4,231.822,6.4Z" transform="translate(-4.8 -6.4)" fill="#005ea3"/>
</svg>
