<svg id="mfedependents-active" xmlns="http://www.w3.org/2000/svg" width="1335.435" height="1096.028" viewBox="0 0 1335.435 1096.028">
  <g id="Groupe_4" data-name="Groupe 4" transform="translate(0 0)">
    <path id="Tracé_2" data-name="Tracé 2" d="M360.754,40.6c-37.794,27.3-83.987,44.093-132.279,44.093-27.3,0-52.492-4.2-75.588-14.7-12.6,62.99-44.094,121.781-90.286,165.874,67.19,33.6,121.781,81.887,159.575,144.878h317.05v-18.9C541.325,200.175,467.836,88.893,360.754,40.6Z" transform="translate(796.165 391.932)" fill="#005ea3"/>
    <path id="Tracé_3" data-name="Tracé 3" d="M181.181,418.937v21c21,8.4,46.192,12.6,69.289,12.6,37.795,0,71.389-10.5,102.884-29.4,58.791-37.794,100.784-107.083,100.784-186.871A222.9,222.9,0,0,0,397.447,87.19,189.941,189.941,0,0,0,252.571,20c-56.691,0-107.084,23.1-142.778,62.99A228.8,228.8,0,0,0,61.5,164.877c14.7,10.5,27.3,23.1,39.894,37.794C151.786,263.562,181.181,339.15,181.181,418.937Z" transform="translate(774.169 -20)" fill="#005ea3"/>
    <path id="Tracé_4" data-name="Tracé 4" d="M489.926,237.969c-44.093-44.093-75.588-100.784-88.186-163.774-21,6.3-44.093,10.5-67.19,10.5-48.292,0-94.485-16.8-132.279-44.093C95.188,88.893,21.7,198.076,21.7,363.949v18.9H330.351C368.146,319.856,422.737,271.564,489.926,237.969Z" transform="translate(-21.7 391.932)" fill="#005ea3"/>
    <path id="Tracé_5" data-name="Tracé 5" d="M125.685,421.137c29.4,18.9,65.09,29.4,102.884,29.4,21,0,41.993-4.2,60.89-10.5v-23.1c0-83.987,29.4-161.675,86.086-220.465a190.956,190.956,0,0,1,44.093-37.794c-10.5-27.3-23.1-50.392-41.994-71.389A189.941,189.941,0,0,0,232.767,20.1c-56.691,0-107.083,23.1-142.777,62.99C50.1,122.984,27,177.575,27,236.366,27,316.154,66.894,385.443,125.685,421.137Z" transform="translate(84.282 -18)" fill="#005ea3"/>
    <path id="Tracé_6" data-name="Tracé 6" d="M750.287,179.28a28.989,28.989,0,0,1-6.3-8.4c-10.5-12.6-18.9-25.2-31.5-37.794s-27.3-25.2-41.993-37.794c-8.4-6.3-14.7-10.5-23.1-16.8-14.7-10.5-31.5-18.9-48.293-27.3-33.595,25.2-75.588,44.093-117.581,50.392-14.7,8.4-31.5,8.4-48.293,8.4-12.6,0-27.3-2.1-39.894-2.1-46.193-6.3-90.286-25.2-128.08-52.491-25.2,10.5-48.292,25.2-71.389,41.993a235.871,235.871,0,0,0-41.994,37.794,299.888,299.888,0,0,0-31.495,37.794,28.974,28.974,0,0,0-6.3,8.4c-6.3,8.4-10.5,16.8-16.8,25.2C76.293,240.17,61.6,280.064,51.1,324.157A623.5,623.5,0,0,0,34.3,469.034v23.1H825.876v-23.1c0-77.688-12.6-146.977-37.794-205.768C781.782,229.672,767.085,202.376,750.287,179.28Z" transform="translate(230.258 603.897)" fill="#005ea3"/>
    <path id="Tracé_7" data-name="Tracé 7" d="M72.6,170.777c-8.4,14.7-14.7,31.5-18.9,48.292s-8.4,35.694-10.5,52.492c0,8.4-2.1,18.9-2.1,27.3v8.4c0,14.7,2.1,31.495,4.2,46.193v2.1c8.4,41.994,25.2,79.788,48.292,111.283,4.2,4.2,6.3,8.4,10.5,12.6,6.3,8.4,14.7,16.8,23.1,25.2,4.2,4.2,8.4,8.4,12.6,10.5,8.4,6.3,16.8,14.7,27.3,18.9,10.5,6.3,18.9,10.5,29.4,16.8,16.8,8.4,35.694,12.6,54.592,16.8,14.7,2.1,29.395,4.2,46.193,4.2a260.626,260.626,0,0,0,56.691-6.3c4.2,0,8.4-2.1,12.6-2.1,6.3-2.1,10.5-4.2,16.8-6.3,16.8-6.3,31.495-12.6,44.093-23.1,14.7-8.4,27.3-18.9,39.894-31.5,39.893-37.794,69.289-90.286,81.887-149.076v-6.3c2.1-14.7,4.2-31.495,4.2-46.192v-2.1c0-18.9-2.1-35.694-4.2-52.492-4.2-16.8-8.4-33.595-14.7-50.392s-12.6-31.5-23.1-46.193c-8.4-14.7-18.9-27.3-29.4-39.894-6.3-8.4-14.7-14.7-23.1-23.1-2.1-2.1-4.2-2.1-4.2-4.2-6.3-6.3-12.6-10.5-21-14.7-14.7-10.5-29.4-16.8-46.193-25.2A255.508,255.508,0,0,0,297.26,25.9c-56.691,0-109.183,21-153.276,54.591-10.5,8.4-18.9,16.8-27.3,25.2C99.891,126.684,85.193,147.681,72.6,170.777Z" transform="translate(366.236 97.981)" fill="#005ea3"/>
  </g>
</svg>
