<svg id="mycard" xmlns="http://www.w3.org/2000/svg" width="1570.57" height="1004.955" viewBox="0 0 1570.57 1004.955">
  <path id="Tracé_34" data-name="Tracé 34" d="M2.7,109.17c0,76.292,63.139,136.8,136.8,136.8H1433.839c76.292,0,136.8-60.507,136.8-136.8V43.4H2.7Z" transform="translate(-2.7 758.986)" fill="#9c9c9c"/>
  <path id="Tracé_35" data-name="Tracé 35" d="M1433.839,12.9H139.5C63.208,12.9,2.7,73.408,2.7,149.7v513H1573.27v-513C1570.639,76.038,1510.132,12.9,1433.839,12.9ZM455.193,281.239v7.892H365.746V212.838h21.046C426.254,212.838,455.193,241.777,455.193,281.239ZM234.208,378.577H147.392V312.808h86.815Zm131.539-63.138h89.446v65.769H365.746Zm-26.308-102.6v270.97H260.516V212.838Zm-121.015,0h18.415v76.293H147.392v-7.892C147.392,241.777,178.962,212.838,218.423,212.838Zm-71.031,202.57V404.885h86.815v78.923H215.793C178.962,483.808,147.392,452.239,147.392,415.408Zm239.4,68.4H365.746V404.885h89.446v10.523C455.193,452.239,426.254,483.808,386.793,483.808Z" transform="translate(-2.7 -12.9)" fill="#9c9c9c"/>
</svg>
