<svg xmlns="http://www.w3.org/2000/svg" width="1857.046" height="1853.045" viewBox="0 0 1857.046 1853.045">
  <g id="payment" transform="translate(0 -0.516)">
    <g id="Groupe_286" data-name="Groupe 286" transform="translate(0 0.516)">
      <g id="Groupe_285" data-name="Groupe 285">
        <rect id="Rectangle_594" data-name="Rectangle 594" width="186.098" height="62.033" transform="translate(1333.705 1236.686)" fill="#005ea3"/>
        <rect id="Rectangle_595" data-name="Rectangle 595" width="186.098" height="62.033" transform="translate(1085.574 1236.686)" fill="#005ea3"/>
        <rect id="Rectangle_596" data-name="Rectangle 596" width="186.098" height="62.033" transform="translate(837.443 1236.686)" fill="#005ea3"/>
        <path id="Tracé_1358" data-name="Tracé 1358" d="M1829.565,641.78,1215.843,27.966A92.652,92.652,0,0,0,1149.9.516h-.279a91.773,91.773,0,0,0-65.414,27.45L433.175,678.907H93.049A93.048,93.048,0,0,0,0,771.956v868.46a93.048,93.048,0,0,0,93.049,93.049H552.588l92.553,92.646a92.653,92.653,0,0,0,65.941,27.45h.248a91.814,91.814,0,0,0,65.445-27.45l92.739-92.646h712.323a93.048,93.048,0,0,0,93.049-93.049V928.093L1829.41,773.569a92.558,92.558,0,0,0,.155-131.789ZM1435,334.935,1091.033,678.907H827.642l475.668-475.668ZM1128.129,71.7a30.583,30.583,0,0,1,43.249-.516c.175.171.349.341.516.516l87.559,87.683L739.9,678.907H520.89ZM732.856,1782.377a30.176,30.176,0,0,1-21.711,9.305,31.013,31.013,0,0,1-22.084-9.305l-48.727-48.913H781.8Zm880-141.962a31.018,31.018,0,0,1-31.017,31.016H93.049a31.018,31.018,0,0,1-31.016-31.016v-434.23h1550.82Zm0-496.262H62.033v-186.1h1550.82Zm0-248.131H62.033V771.956A31.018,31.018,0,0,1,93.049,740.94H1581.837a31.018,31.018,0,0,1,31.017,31.016Zm172.854-166.465h0L1674.886,840.378V771.956a93.048,93.048,0,0,0-93.049-93.049H1178.623l300.115-300.115,306.846,306.845a31.008,31.008,0,0,1,9.3,22.177A30.407,30.407,0,0,1,1785.707,729.557Z" transform="translate(0 -0.516)" fill="#005ea3"/>
        <path id="Tracé_1359" data-name="Tracé 1359" d="M229.018,577.451A124.047,124.047,0,0,0,241.7,564.765a122.979,122.979,0,0,0,163.27,21.029,126.115,126.115,0,0,0,53.844-102.23A124.066,124.066,0,0,0,334.753,359.5a94.063,94.063,0,0,0-18.362,1.55l-.806.217h-.9a122.47,122.47,0,0,0-72.982,41.19,124.065,124.065,0,1,0-12.686,174.994Zm97.888-155.268a37.512,37.512,0,0,1,7.847-.652,62.031,62.031,0,0,1,62.033,62.033A60.826,60.826,0,0,1,384.6,519.946c-1.117,1.52-1.985,3.1-3.257,4.684-.217.247-.527.4-.775.651a61.663,61.663,0,1,1-53.659-103.1Zm-178.251-.652a62.033,62.033,0,1,1-62.033,62.033A62.031,62.031,0,0,1,148.654,421.531Z" transform="translate(68.46 1032.269)" fill="#005ea3"/>
      </g>
    </g>
  </g>
</svg>
