<svg xmlns="http://www.w3.org/2000/svg" width="1348.674" height="1354.608" viewBox="0 0 1348.674 1354.608">
  <path id="search" d="M1325.72,1194.426l-358.7-363.3c-2.562-2.595-7.686-5.19-10.248-7.785,53.805-83.041,87.114-184.247,87.114-290.644C1043.881,242.048,810.723,5.9,523.759,5.9S6.2,239.453,6.2,530.1,239.358,1056.89,526.321,1056.89c110.174,0,212.661-36.33,297.212-96.016l7.686,7.785,358.7,363.305c17.935,18.165,43.557,28.545,69.178,28.545s48.682-10.38,69.179-28.545C1364.152,1293.037,1364.152,1230.757,1325.72,1194.426ZM116.373,530.1c0-228.364,181.914-412.611,407.386-412.611S931.145,301.734,931.145,530.1,749.231,942.708,523.759,942.708,116.373,758.461,116.373,530.1Z" transform="translate(-6.199 -5.9)" fill="#9c9c9c"/>
</svg>
