<svg xmlns="http://www.w3.org/2000/svg" width="1362.771" height="1367.126" viewBox="0 0 1362.771 1367.126">
  <path id="settings" d="M7.6,493.912c8.771-37.279,74.557-179.815,96.486-206.129l72.365,32.893c26.314,13.157,54.822,26.314,81.136,37.279,13.157,6.579,21.929,4.386,32.893-6.579,26.314-32.893,59.207-61.4,92.1-85.522,13.157-10.964,15.35-17.543,10.964-32.893C376,186.91,360.647,143.053,343.1,99.2c-6.579-17.543-2.193-26.314,13.157-35.086C408.89,35.6,465.9,15.867,525.112,2.71c17.543-4.386,26.315,0,30.7,17.543C573.355,64.11,588.7,110.16,606.248,154.017c6.578,19.736,13.157,24.122,32.893,21.929,39.471-4.386,78.943-2.193,118.415,4.386,21.929,4.386,26.314,0,37.279-19.736,19.736-41.664,39.471-85.522,59.207-127.186,6.579-17.543,17.543-21.929,32.893-15.35,54.822,24.122,107.45,48.243,162.272,74.557,15.35,8.771,19.736,17.543,10.965,35.086l-59.207,131.572c-6.579,15.35-6.579,24.122,8.771,35.086,32.893,26.314,59.207,57.015,85.522,92.1,10.964,15.35,17.543,17.543,35.086,10.964,43.857-15.35,87.714-32.893,131.572-48.243,21.929-8.771,28.507-4.386,39.472,15.35,26.314,52.629,48.243,107.45,61.4,166.658,4.386,15.35,0,24.121-15.35,30.7-43.857,17.543-89.907,32.893-133.765,50.436-17.543,6.579-21.929,13.157-19.736,32.893,4.386,39.472,2.193,81.136-4.386,120.608-4.386,21.929,0,26.314,19.736,35.086,41.665,19.736,85.522,39.472,127.186,59.207,17.543,8.771,21.929,17.543,15.35,35.086-24.122,54.822-48.243,107.45-74.557,160.079-8.771,17.543-19.736,19.736-35.086,10.964-43.857-19.736-85.522-39.472-129.379-59.207-17.543-6.579-24.121-6.579-35.086,8.771-26.315,32.893-57.014,59.207-92.1,85.522-13.157,10.964-15.35,17.543-10.964,32.893,15.35,43.857,32.893,87.715,48.243,133.765,6.578,19.736,4.386,28.507-15.35,37.279-52.629,26.314-109.643,48.243-166.658,61.4-17.543,4.386-24.121,0-30.7-17.543-17.543-43.857-32.893-89.907-50.436-133.765-6.578-19.736-13.157-21.929-32.893-21.929-39.472,4.386-78.943,2.193-118.415-4.385-21.929-4.386-26.314,0-37.279,19.736-19.736,41.665-39.472,83.329-59.207,127.186-8.772,17.543-15.35,21.928-35.086,15.35-57.014-17.542-111.836-41.664-162.272-74.557-15.35-10.964-19.736-19.736-10.964-37.279,19.736-43.857,39.472-85.522,59.207-129.379,6.579-15.35,6.579-24.122-6.579-35.086-32.893-26.315-59.207-57.015-85.522-92.1-10.964-15.35-17.543-17.543-35.086-10.964-43.857,17.543-89.907,32.893-133.765,50.436-17.543,6.579-26.314,4.386-37.279-13.157C38.3,956.606,16.367,899.592,3.21,842.577c-4.386-17.543,0-26.314,17.543-32.893,43.857-15.35,87.715-32.893,133.765-48.243,17.543-6.579,21.929-13.157,19.736-32.893-4.386-39.471-2.193-81.136,4.386-120.608,4.386-21.929,0-26.314-19.736-35.086C108.467,539.962,58.031,518.033,7.6,493.912m1037.225,184.2c0-201.744-164.465-366.209-366.208-366.209S312.4,476.369,312.4,678.112c0,203.937,164.465,368.4,366.208,368.4,203.937-2.193,366.208-166.658,366.208-368.4" transform="translate(-1.627 -1.128)" fill="#9c9c9c"/>
</svg>
