<svg xmlns="http://www.w3.org/2000/svg" width="16.404" height="9.842" viewBox="0 0 16.404 9.842"><defs><style>.a{fill:#204f79;}</style></defs><path class="a" d="M15.912,10.5H13.123V7.712c0-.492-.328-.492-.82-.492s-.82,0-.82.492V10.5H8.694c-.492,0-.492.328-.492.82s0,.82.492.82h2.789V14.93c0,.492.328.492.82.492s.82,0,.82-.492V12.141h2.789c.492,0,.492-.328.492-.82S16.4,10.5,15.912,10.5Zm-9.842,0H.492C0,10.5,0,10.829,0,11.321s0,.82.492.82H6.069c.492,0,.492-.328.492-.82S6.561,10.5,6.069,10.5Zm0,4.1H.492C0,14.6,0,14.93,0,15.422s0,.82.492.82H6.069c.492,0,.492-.328.492-.82S6.561,14.6,6.069,14.6Zm0-8.2H.492C0,6.4,0,6.728,0,7.22s0,.82.492.82H6.069c.492,0,.492-.328.492-.82S6.561,6.4,6.069,6.4Z" transform="translate(0 -6.4)"/></svg>