<svg xmlns="http://www.w3.org/2000/svg" width="37" height="33" viewBox="0 0 37 33"><defs><style>.a{fill:#484848;stroke:#484848;}</style></defs><path class="a" d="M26,10.5v20a1.483,1.483,0,0,0,.092.5H22.908A1.483,1.483,0,0,0,23,30.5V1.5A1.5,1.5,0,0,0,21.5,0h-7A1.5,1.5,0,0,0,13,1.5v29a1.483,1.483,0,0,0,.092.5H9.908A1.483,1.483,0,0,0,10,30.5v-11A1.5,1.5,0,0,0,8.5,18h-7A1.5,1.5,0,0,0,0,19.5v11A1.5,1.5,0,0,0,1.5,32h33A1.5,1.5,0,0,0,36,30.5v-20A1.5,1.5,0,0,0,34.5,9h-7A1.5,1.5,0,0,0,26,10.5ZM5,31H1.5a.5.5,0,0,1-.5-.5v-11a.5.5,0,0,1,.5-.5h7a.5.5,0,0,1,.5.5v11a.5.5,0,0,1-.5.5Zm9.5,0a.5.5,0,0,1-.5-.5V1.5a.5.5,0,0,1,.5-.5h7a.5.5,0,0,1,.5.5v29a.5.5,0,0,1-.5.5ZM35,10.5v20a.5.5,0,0,1-.5.5h-7a.5.5,0,0,1-.5-.5v-20a.5.5,0,0,1,.5-.5h7A.5.5,0,0,1,35,10.5Z" transform="translate(0.5 0.5)"/></svg>