<svg xmlns="http://www.w3.org/2000/svg" width="33.12" height="25.234" viewBox="0 0 33.12 25.234"><defs><style>.a{fill:#28a745;}</style></defs><path class="a" d="M32.726,7.886a.394.394,0,0,0-.394.394V24.052a.394.394,0,0,1-.394.394H1.183a.394.394,0,0,1-.394-.394V8.28A.394.394,0,0,0,0,8.28V24.052a1.184,1.184,0,0,0,1.183,1.183H31.937a1.184,1.184,0,0,0,1.183-1.183V8.28A.394.394,0,0,0,32.726,7.886ZM31.937,0H1.183A1.184,1.184,0,0,0,0,1.183V5.914a.394.394,0,0,0,.394.394H32.726a.394.394,0,0,0,.394-.394V1.183A1.184,1.184,0,0,0,31.937,0Zm.394,5.52H.789V1.183A.394.394,0,0,1,1.183.789H31.937a.394.394,0,0,1,.394.394ZM13.8,22.08a.394.394,0,0,0,.394-.394V9.069a.394.394,0,0,0-.394-.394H3.549a.394.394,0,0,0-.394.394V21.686a.394.394,0,0,0,.394.394ZM3.943,9.463h9.463V21.292H3.943Zm13.8,2.366H29.572a.394.394,0,0,0,0-.789H17.743a.394.394,0,0,0,0,.789Zm0,3.943H29.572a.394.394,0,0,0,0-.789H17.743a.394.394,0,0,0,0,.789Zm0,3.943H29.572a.394.394,0,0,0,0-.789H17.743a.394.394,0,0,0,0,.789ZM2.366,3.154a.789.789,0,1,0,.789-.789A.789.789,0,0,0,2.366,3.154Zm3.154,0a.789.789,0,1,0,.789-.789A.789.789,0,0,0,5.52,3.154Zm3.154,0a.789.789,0,1,0,.789-.789A.789.789,0,0,0,8.674,3.154Z"/></svg>