<svg xmlns="http://www.w3.org/2000/svg" width="18.123" height="13.927" viewBox="0 0 18.123 13.927"><defs><style>.a{fill:#204f79;stroke:#204f79;stroke-width:0.5px;}</style></defs><path class="a" d="M17.413,4.2a.21.21,0,0,0-.21.21V12.8a.21.21,0,0,1-.21.21H.629a.21.21,0,0,1-.21-.21V4.406a.21.21,0,1,0-.42,0V12.8a.63.63,0,0,0,.629.629H16.993a.63.63,0,0,0,.629-.629V4.406A.21.21,0,0,0,17.413,4.2ZM16.993,0H.629A.63.63,0,0,0,0,.629V3.147a.21.21,0,0,0,.21.21h17.2a.21.21,0,0,0,.21-.21V.629A.63.63,0,0,0,16.993,0Zm.21,2.937H.42V.629A.21.21,0,0,1,.629.42H16.993a.21.21,0,0,1,.21.21Zm-9.86,8.811a.21.21,0,0,0,.21-.21V4.825a.21.21,0,0,0-.21-.21H1.888a.21.21,0,0,0-.21.21v6.713a.21.21,0,0,0,.21.21ZM2.1,5.035H7.133v6.294H2.1ZM9.441,6.294h6.294a.21.21,0,0,0,0-.42H9.441a.21.21,0,1,0,0,.42Zm0,2.1h6.294a.21.21,0,0,0,0-.42H9.441a.21.21,0,1,0,0,.42Zm0,2.1h6.294a.21.21,0,0,0,0-.42H9.441a.21.21,0,1,0,0,.42ZM1.259,1.678a.42.42,0,1,0,.42-.42A.42.42,0,0,0,1.259,1.678Zm1.678,0a.42.42,0,1,0,.42-.42A.42.42,0,0,0,2.937,1.678Zm1.678,0a.42.42,0,1,0,.42-.42A.42.42,0,0,0,4.615,1.678Z" transform="translate(0.25 0.25)"/></svg>