<svg xmlns="http://www.w3.org/2000/svg" width="29.601" height="27.859" viewBox="0 0 29.601 27.859"><defs><style>.a{fill:#af13a5;}</style></defs><path class="a" d="M29.6,26.553V10.012a.435.435,0,0,0-.871,0V26.553a.435.435,0,0,1-.435.435H1.306a.435.435,0,0,1-.435-.435V10.012a.435.435,0,0,0-.871,0V26.553a1.308,1.308,0,0,0,1.306,1.306H28.295A1.308,1.308,0,0,0,29.6,26.553ZM3.918,20.024a.435.435,0,0,0,0,.871H5.224v3.047a.435.435,0,0,0,.871,0V20.895h5.224v3.047a.435.435,0,0,0,.871,0V20.895h5.224v3.047a.435.435,0,0,0,.871,0V20.895h5.224v3.047a.435.435,0,0,0,.871,0V20.895h1.306a.435.435,0,0,0,0-.871H24.377V15.671h1.306a.435.435,0,0,0,0-.871H24.377V10.883a.435.435,0,0,0-.871,0V14.8H18.283V10.883a.435.435,0,0,0-.871,0V14.8H12.188V10.883a.435.435,0,0,0-.871,0V14.8H6.094V10.883a.435.435,0,0,0-.871,0V14.8H3.918a.435.435,0,0,0,0,.871H5.224v4.353Zm19.589-4.353v4.353H18.283V15.671Zm-6.094,0v4.353H12.188V15.671Zm-11.318,0h5.224v4.353H6.094ZM24.812,2.612h3.7c.076,0,.218,0,.218.435V6.965H.871V3.047a.435.435,0,0,1,.435-.435H4.788a.435.435,0,0,0,0-.871H1.306A1.308,1.308,0,0,0,0,3.047V7.4a.435.435,0,0,0,.435.435h28.73A.435.435,0,0,0,29.6,7.4V3.047c0-.963-.562-1.306-1.088-1.306h-3.7a.435.435,0,0,0,0,.871Zm-5.224,0a.435.435,0,0,0,0-.871H10.012a.435.435,0,0,0,0,.871ZM7.835,3.918V.435a.435.435,0,0,0-.871,0V3.918a.435.435,0,0,0,.871,0ZM22.2,4.353a.435.435,0,0,0,.435-.435V.435a.435.435,0,0,0-.871,0V3.918A.435.435,0,0,0,22.2,4.353Z"/></svg>