<svg xmlns="http://www.w3.org/2000/svg" width="31.465" height="35.889" viewBox="0 0 31.465 35.889"><defs><style>.a{fill:#484848;stroke:#484848;stroke-width:0.5px;}</style></defs><path class="a" d="M1.659,35.389H29.306a1.6,1.6,0,0,0,1.659-1.659V2.765a1.6,1.6,0,0,0-1.659-1.659H24.883a.553.553,0,0,0,0,1.106h4.424a.508.508,0,0,1,.553.553V33.73a.508.508,0,0,1-.553.553H1.659a.508.508,0,0,1-.553-.553V2.765a.508.508,0,0,1,.553-.553H6.082a.553.553,0,1,0,0-1.106H1.659A1.6,1.6,0,0,0,0,2.765V33.73A1.6,1.6,0,0,0,1.659,35.389ZM6.082,5.529a.553.553,0,1,0,0-1.106H3.871a.553.553,0,0,0-.553.553V31.518a.553.553,0,0,0,.553.553H27.094a.553.553,0,0,0,.553-.553V4.977a.553.553,0,0,0-.553-.553H24.883a.553.553,0,0,0,0,1.106h1.659V30.965H4.424V5.529ZM9.953,7.741H21.012a2.073,2.073,0,0,0,2.212-2.212V.553A.553.553,0,0,0,22.671,0H8.294a.553.553,0,0,0-.553.553V5.529A2.073,2.073,0,0,0,9.953,7.741ZM8.847,1.106H22.118V5.529a.98.98,0,0,1-1.106,1.106H9.953A.98.98,0,0,1,8.847,5.529ZM9.4,17.694H21.565a.553.553,0,0,0,0-1.106H9.4a.553.553,0,1,0,0,1.106Zm0-4.424H21.565a.553.553,0,0,0,0-1.106H9.4a.553.553,0,0,0,0,1.106Zm0,8.847H21.565a.553.553,0,0,0,0-1.106H9.4a.553.553,0,1,0,0,1.106Zm0,4.424H21.565a.553.553,0,0,0,0-1.106H9.4a.553.553,0,0,0,0,1.106Z" transform="translate(0.25 0.25)"/></svg>