<svg xmlns="http://www.w3.org/2000/svg" width="45.94" height="32.143" viewBox="0 0 45.94 32.143"><defs><style>.a{fill:#585858;}</style></defs><path class="a" d="M13.133,31.776a2.289,2.289,0,0,1-1.524-.578L-.008,20.871,12.255,9.97A2.3,2.3,0,0,1,15.3,13.4L6.9,20.871l7.756,6.892a2.3,2.3,0,0,1-1.524,4.013Zm20.536,0,12.263-10.9L34.315,10.544a2.3,2.3,0,0,0-3.049,3.432l7.756,6.895-8.4,7.466a2.3,2.3,0,0,0,3.048,3.435ZM22.93,35.025l4.592-27.55a2.295,2.295,0,1,0-4.527-.756L18.4,34.269a2.3,2.3,0,0,0,1.887,2.643,2.435,2.435,0,0,0,.379.03,2.3,2.3,0,0,0,2.261-1.917Z" transform="translate(0.008 -4.8)"/></svg>