<svg xmlns="http://www.w3.org/2000/svg" width="27.588" height="31.95" viewBox="0 0 27.588 31.95">
  <g id="documents" transform="translate(-32.8)">
    <path id="Tracé_8" data-name="Tracé 8" d="M59.635,19.67a2.128,2.128,0,0,1,1.7,2.5L56.869,45.148a2.128,2.128,0,0,1-2.5,1.7L35.593,43.18a2.128,2.128,0,0,1-1.7-2.5L38.359,17.7A2.147,2.147,0,0,1,40.327,16a1.809,1.809,0,0,1,.532.053Z" transform="translate(-0.985 -14.936)" fill="#badbf8"/>
    <path id="Tracé_9" data-name="Tracé 9" d="M54.076,32A2.134,2.134,0,0,1,56.2,34.128v23.4a2.134,2.134,0,0,1-2.128,2.128H34.928A2.134,2.134,0,0,1,32.8,57.531v-23.4a2.169,2.169,0,0,1,1.6-2.074h.053A1.473,1.473,0,0,1,34.928,32Z" transform="translate(0 -29.872)" fill="#dbedfe"/>
    <path id="Tracé_10" data-name="Tracé 10" d="M64.993,2.659V13.3a2.659,2.659,0,1,1-5.319,0V4.787a.532.532,0,1,1,1.064,0V13.3a1.6,1.6,0,0,0,3.191,0V2.659a1.574,1.574,0,0,0-.106-.532,1.549,1.549,0,0,0-1.489-1.064H60.206a1.549,1.549,0,0,0-1.489,1.064h-.638a1.473,1.473,0,0,0-.479.053A2.636,2.636,0,0,1,60.206,0h2.128A2.675,2.675,0,0,1,64.94,2.128,1.809,1.809,0,0,1,64.993,2.659Z" transform="translate(-23.151)" fill="#204f79"/>
    <g id="Groupe_36" data-name="Groupe 36" transform="translate(36.523 5.851)">
      <path id="Tracé_11" data-name="Tracé 11" d="M223.715,89.064h-6.383a.532.532,0,0,1,0-1.064h6.383a.532.532,0,1,1,0,1.064Z" transform="translate(-208.29 -88)" fill="rgba(32,79,121,0.65)"/>
      <path id="Tracé_12" data-name="Tracé 12" d="M223.715,153.064h-6.383a.532.532,0,0,1,0-1.064h6.383a.532.532,0,1,1,0,1.064Z" transform="translate(-208.29 -147.745)" fill="rgba(32,79,121,0.65)"/>
      <path id="Tracé_13" data-name="Tracé 13" d="M219.459,217.064h-2.128a.532.532,0,0,1,0-1.064h2.128a.532.532,0,1,1,0,1.064Z" transform="translate(-208.29 -207.49)" fill="rgba(32,79,121,0.65)"/>
      <path id="Tracé_14" data-name="Tracé 14" d="M283.459,217.064h-2.128a.532.532,0,0,1,0-1.064h2.128a.532.532,0,1,1,0,1.064Z" transform="translate(-268.034 -207.49)" fill="rgba(32,79,121,0.65)"/>
      <path id="Tracé_15" data-name="Tracé 15" d="M95.715,313.064H89.332a.532.532,0,1,1,0-1.064h6.383a.532.532,0,1,1,0,1.064Z" transform="translate(-88.8 -297.107)" fill="rgba(32,79,121,0.65)"/>
      <path id="Tracé_16" data-name="Tracé 16" d="M223.715,313.064h-6.383a.532.532,0,1,1,0-1.064h6.383a.532.532,0,1,1,0,1.064Z" transform="translate(-208.29 -297.107)" fill="rgba(32,79,121,0.65)"/>
      <path id="Tracé_17" data-name="Tracé 17" d="M223.715,185.064h-6.383a.532.532,0,0,1,0-1.064h6.383a.532.532,0,1,1,0,1.064Z" transform="translate(-208.29 -177.617)" fill="rgba(32,79,121,0.65)"/>
      <path id="Tracé_18" data-name="Tracé 18" d="M99.97,281.064H89.332a.532.532,0,1,1,0-1.064H99.97a.532.532,0,1,1,0,1.064Z" transform="translate(-88.8 -267.234)" fill="rgba(32,79,121,0.65)"/>
      <path id="Tracé_19" data-name="Tracé 19" d="M283.459,281.064h-2.128a.532.532,0,0,1,0-1.064h2.128a.532.532,0,1,1,0,1.064Z" transform="translate(-268.034 -267.234)" fill="rgba(32,79,121,0.65)"/>
      <path id="Tracé_20" data-name="Tracé 20" d="M219.459,121.064h-2.128a.532.532,0,0,1,0-1.064h2.128a.532.532,0,1,1,0,1.064Z" transform="translate(-208.29 -117.872)" fill="rgba(32,79,121,0.65)"/>
      <path id="Tracé_21" data-name="Tracé 21" d="M283.459,121.064h-2.128a.532.532,0,0,1,0-1.064h2.128a.532.532,0,1,1,0,1.064Z" transform="translate(-268.034 -117.872)" fill="rgba(32,79,121,0.65)"/>
      <path id="Tracé_22" data-name="Tracé 22" d="M223.715,249.064h-6.383a.532.532,0,0,1,0-1.064h6.383a.532.532,0,1,1,0,1.064Z" transform="translate(-208.29 -237.362)" fill="rgba(32,79,121,0.65)"/>
    </g>
  </g>
</svg>
