<svg xmlns="http://www.w3.org/2000/svg" width="32.5" height="32.5" viewBox="0 0 32.5 32.5"><defs><style>.a{fill:#484848;stroke:#484848;stroke-width:0.5px;}</style></defs><path class="a" d="M1.5,32h29A1.5,1.5,0,0,0,32,30.5V1.5A1.5,1.5,0,0,0,30.5,0H1.5A1.5,1.5,0,0,0,0,1.5v29A1.5,1.5,0,0,0,1.5,32ZM1,1.5A.5.5,0,0,1,1.5,1h29a.5.5,0,0,1,.5.5v29a.5.5,0,0,1-.5.5H1.5a.5.5,0,0,1-.5-.5ZM4,28.479a.5.5,0,0,0,.143-.021l10-2.979a.5.5,0,0,0,.213-.127l10.09-10.2a.457.457,0,0,0,.052-.08l3.658-3.658a1.56,1.56,0,0,0,0-2.2L22.92,3.972a1.558,1.558,0,0,0-2.2,0L16.979,7.711a.476.476,0,0,0-.054.081L6.807,17.911a.5.5,0,0,0-.122.2l-3.16,9.715A.5.5,0,0,0,4,28.479ZM17.359,8.771l1.04,1.04L9.876,18.374l-1.727-.392,9.21-9.211ZM10.5,19.165l8.607-8.646,2.434,2.434L12.8,21.5H10.5ZM23.385,14.8l-9.246,9.352-.576-2,8.684-8.489L23.385,14.8ZM7.493,18.859l2.007.456V22a.5.5,0,0,0,.5.5h2.624l.633,2.2L4.77,27.228l2.723-8.369ZM21.425,4.679a.559.559,0,0,1,.788,0l5.235,5.235a.558.558,0,0,1,0,.789l-3.372,3.372L18.053,8.052l3.372-3.373Z" transform="translate(0.25 0.25)"/></svg>