<svg id="file-and-folder" xmlns="http://www.w3.org/2000/svg" width="22.692" height="18.333" viewBox="0 0 22.692 18.333">
  <path id="Tracé_1" data-name="Tracé 1" d="M24.04,52.359H12.493a.667.667,0,0,1-.366-.112l-1.988-1.336a.667.667,0,0,0-.366-.112h-6.3a.65.65,0,0,0-.527.268l-.822,1.117A.661.661,0,0,0,2,52.573V68.48a.653.653,0,0,0,.652.652H24.036a.653.653,0,0,0,.652-.652V53.011a.646.646,0,0,0-.648-.652Z" transform="translate(-2 -50.8)" fill="#c18930"/>
  <path id="Tracé_2" data-name="Tracé 2" d="M24.04,52.359H12.493a.667.667,0,0,1-.366-.112l-1.988-1.336a.667.667,0,0,0-.366-.112h-6.3a.65.65,0,0,0-.527.268l-.822,1.117A.661.661,0,0,0,2,52.573v.389a.661.661,0,0,1,.125-.389l.822-1.117a.65.65,0,0,1,.527-.268h6.3a.667.667,0,0,1,.366.112l1.988,1.336a.667.667,0,0,0,.366.112H24.04a.653.653,0,0,1,.652.652v-.389A.653.653,0,0,0,24.04,52.359Z" transform="translate(-2 -50.8)" fill="#f8bc5c"/>
  <path id="Tracé_3" data-name="Tracé 3" d="M24.04,149.4H2.652a.657.657,0,0,0-.652.657v12.619a.653.653,0,0,0,.652.652H24.036a.653.653,0,0,0,.652-.652V150.057a.65.65,0,0,0-.648-.657Z" transform="translate(-2 -144.996)" fill="#f8bc5c"/>
  <path id="Tracé_4" data-name="Tracé 4" d="M24.04,149.4H2.652a.657.657,0,0,0-.652.657v.4a.653.653,0,0,1,.652-.652H24.036a.653.653,0,0,1,.652.652v-.4a.65.65,0,0,0-.648-.657Z" transform="translate(-2 -144.996)" fill="#c18930"/>
  <path id="Tracé_5" data-name="Tracé 5" d="M32,109H52.012v1.8H32Z" transform="translate(-30.66 -106.4)" fill="#fff"/>
  <g id="Groupe_27" data-name="Groupe 27" transform="translate(2.189 7.165)">
    <path id="Tracé_6" data-name="Tracé 6" d="M51,211.2h8.376v.911H51Z" transform="translate(-51 -211.2)" fill="#ae833f"/>
    <path id="Tracé_7" data-name="Tracé 7" d="M51,259.7h8.376v.911H51Z" transform="translate(-51 -257.534)" fill="#ae833f"/>
  </g>
</svg>
