<svg xmlns="http://www.w3.org/2000/svg" width="25.324" height="29.467" viewBox="0 0 25.324 29.467"><defs><style>.a{fill:#b19b0f;}</style></defs><path class="a" d="M12.432.921H2.3a.461.461,0,0,0-.46.46V15.194a.461.461,0,0,0,.46.46H12.433a1.3,1.3,0,0,1,1.379,1.381.46.46,0,0,0,.921,0V3.208a2.266,2.266,0,0,0-2.3-2.287Zm1.381,14.233a2.577,2.577,0,0,0-1.381-.42H2.763V1.842h9.669a1.375,1.375,0,0,1,1.381,1.381Zm10.432,4.184H11.5a1.647,1.647,0,0,1-1.05-.386,1.341,1.341,0,0,1-.349-1,.46.46,0,0,0-.921,0,2.213,2.213,0,0,0,.634,1.66,2.552,2.552,0,0,0,1.675.642H24.245a1.033,1.033,0,0,0,.857-.408,1.254,1.254,0,0,0,.17-1.07c-.518-1.706-3.261-5.417-4.032-6.442.743-1.143,3.513-5.47,4.032-7.176a1.248,1.248,0,0,0-.17-1.07,1.031,1.031,0,0,0-.857-.409H16.154a.46.46,0,1,0,0,.921h8.092c.091,0,.11.026.117.036a.337.337,0,0,1,.029.253c-.549,1.806-4.063,7.157-4.1,7.211a.461.461,0,0,0,.019.533c.035.046,3.535,4.621,4.079,6.41a.344.344,0,0,1-.029.254c-.007.01-.026.036-.117.036ZM.921,29.007V.46A.46.46,0,0,0,0,.46V29.007a.46.46,0,1,0,.921,0Z"/></svg>