<svg xmlns="http://www.w3.org/2000/svg" width="37.411" height="28.742" viewBox="0 0 37.411 28.742"><defs><style>.a{fill:#484848;stroke:#484848;}</style></defs><path class="a" d="M7.369,0H1.3A1.3,1.3,0,0,0,0,1.3V6.5a.433.433,0,0,0,.867,0V1.3A.434.434,0,0,1,1.3.867H7.369a.433.433,0,0,0,0-.867ZM35.111,0H29.043a.433.433,0,1,0,0,.867h6.069a.434.434,0,0,1,.433.433V6.5a.433.433,0,1,0,.867,0V1.3A1.3,1.3,0,0,0,35.111,0Zm.867,20.807a.434.434,0,0,0-.433.433v5.2a.434.434,0,0,1-.433.433H29.043a.433.433,0,1,0,0,.867h6.069a1.3,1.3,0,0,0,1.3-1.3v-5.2A.434.434,0,0,0,35.978,20.807Zm-35.545,0A.434.434,0,0,0,0,21.24v5.2a1.3,1.3,0,0,0,1.3,1.3H7.369a.433.433,0,1,0,0-.867H1.3a.434.434,0,0,1-.433-.433v-5.2A.434.434,0,0,0,.433,20.807Zm19.94-4.335a.434.434,0,0,0,.433-.433V11.7a.434.434,0,0,0-.433-.433H16.038a.434.434,0,0,0-.433.433v4.335a.434.434,0,0,0,.433.433Zm-3.9-4.335H19.94V15.6H16.472Z" transform="translate(0.5 0.5)"/></svg>