<svg xmlns="http://www.w3.org/2000/svg" width="27.589" height="31.95" viewBox="0 0 27.589 31.95"><defs><style>.a{fill:#badbf8;}.b{fill:#dbedfe;}.c{fill:#204f79;}.d{fill:rgba(32,79,121,0.65);}</style></defs><g transform="translate(-731 -272)"><path class="a" d="M59.635,19.67a2.128,2.128,0,0,1,1.7,2.5L56.869,45.148a2.128,2.128,0,0,1-2.5,1.7L35.593,43.18a2.128,2.128,0,0,1-1.7-2.5L38.359,17.7A2.147,2.147,0,0,1,40.327,16a1.809,1.809,0,0,1,.532.053Z" transform="translate(697.215 257.064)"/><path class="b" d="M54.076,32A2.134,2.134,0,0,1,56.2,34.128v23.4a2.134,2.134,0,0,1-2.128,2.128H34.928A2.134,2.134,0,0,1,32.8,57.531v-23.4a2.169,2.169,0,0,1,1.6-2.074h.053A1.473,1.473,0,0,1,34.928,32Z" transform="translate(698.2 242.128)"/><path class="c" d="M64.993,2.659V13.3a2.659,2.659,0,1,1-5.319,0V4.787a.532.532,0,1,1,1.064,0V13.3a1.6,1.6,0,0,0,3.191,0V2.659a1.574,1.574,0,0,0-.106-.532,1.549,1.549,0,0,0-1.489-1.064H60.206a1.549,1.549,0,0,0-1.489,1.064h-.638a1.473,1.473,0,0,0-.479.053A2.636,2.636,0,0,1,60.206,0h2.128A2.675,2.675,0,0,1,64.94,2.128,1.809,1.809,0,0,1,64.993,2.659Z" transform="translate(675.049 272)"/><path class="d" d="M223.715,89.064h-6.383a.532.532,0,0,1,0-1.064h6.383a.532.532,0,1,1,0,1.064Z" transform="translate(526.434 189.851)"/><path class="d" d="M223.715,153.064h-6.383a.532.532,0,0,1,0-1.064h6.383a.532.532,0,1,1,0,1.064Z" transform="translate(526.434 130.106)"/><path class="d" d="M219.459,217.064h-2.128a.532.532,0,0,1,0-1.064h2.128a.532.532,0,1,1,0,1.064Z" transform="translate(526.434 70.361)"/><path class="d" d="M283.459,217.064h-2.128a.532.532,0,0,1,0-1.064h2.128a.532.532,0,1,1,0,1.064Z" transform="translate(466.689 70.361)"/><path class="d" d="M95.715,313.064H89.332a.532.532,0,1,1,0-1.064h6.383a.532.532,0,1,1,0,1.064Z" transform="translate(645.924 -19.256)"/><path class="d" d="M223.715,313.064h-6.383a.532.532,0,1,1,0-1.064h6.383a.532.532,0,1,1,0,1.064Z" transform="translate(526.434 -19.256)"/><path class="d" d="M223.715,185.064h-6.383a.532.532,0,0,1,0-1.064h6.383a.532.532,0,1,1,0,1.064Z" transform="translate(526.434 100.234)"/><path class="d" d="M99.97,281.064H89.332a.532.532,0,1,1,0-1.064H99.97a.532.532,0,1,1,0,1.064Z" transform="translate(645.924 10.616)"/><path class="d" d="M283.459,281.064h-2.128a.532.532,0,0,1,0-1.064h2.128a.532.532,0,1,1,0,1.064Z" transform="translate(466.689 10.616)"/><path class="d" d="M219.459,121.064h-2.128a.532.532,0,0,1,0-1.064h2.128a.532.532,0,1,1,0,1.064Z" transform="translate(526.434 159.978)"/><path class="d" d="M283.459,121.064h-2.128a.532.532,0,0,1,0-1.064h2.128a.532.532,0,1,1,0,1.064Z" transform="translate(466.689 159.978)"/><path class="d" d="M223.715,249.064h-6.383a.532.532,0,0,1,0-1.064h6.383a.532.532,0,1,1,0,1.064Z" transform="translate(526.434 40.489)"/></g></svg>