<svg xmlns="http://www.w3.org/2000/svg" width="12.169" height="13.627" viewBox="0 0 12.169 13.627"><defs><style>.a{fill:#204f79;}</style></defs><g transform="translate(-236.831 -135)"><path class="a" d="M14.956,14.93a.551.551,0,0,1,0,.775.538.538,0,0,1-.767,0L7.986,9.44a.551.551,0,0,1,0-.775l6.2-6.265a.539.539,0,0,1,.767,0,.551.551,0,0,1,0,.775L9.3,9.052l5.658,5.877Z" transform="translate(229.004 132.761)"/><path class="a" d="M14.956,14.93a.551.551,0,0,1,0,.775.538.538,0,0,1-.767,0L7.986,9.44a.551.551,0,0,1,0-.775l6.2-6.265a.539.539,0,0,1,.767,0,.551.551,0,0,1,0,.775L9.3,9.052l5.658,5.877Z" transform="translate(233.884 132.761)"/></g></svg>