<svg xmlns="http://www.w3.org/2000/svg" width="23.612" height="27.345" viewBox="0 0 23.612 27.345"><defs><style>.a{fill:#badbf8;}.b{fill:#dbedfe;}.c{fill:#204f79;}.d{fill:rgba(32,79,121,0.65);}</style></defs><g transform="translate(-777.476 -463.605)"><path class="a" d="M55.92,19.141a1.821,1.821,0,0,1,1.457,2.14L53.553,40.947a1.821,1.821,0,0,1-2.14,1.457l-16.07-3.141a1.821,1.821,0,0,1-1.457-2.14L37.71,17.457A1.837,1.837,0,0,1,39.395,16a1.549,1.549,0,0,1,.455.046Z" transform="translate(743.681 448.515)"/><path class="b" d="M51.01,32a1.826,1.826,0,0,1,1.821,1.821V53.852a1.826,1.826,0,0,1-1.821,1.821H34.621A1.826,1.826,0,0,1,32.8,53.852V33.821a1.857,1.857,0,0,1,1.366-1.775h.046a1.26,1.26,0,0,1,.41-.046Z" transform="translate(744.676 433.426)"/><path class="c" d="M63.928,2.276v9.1a2.276,2.276,0,1,1-4.552,0V4.1a.455.455,0,1,1,.91,0v7.284a1.366,1.366,0,0,0,2.731,0v-9.1a1.347,1.347,0,0,0-.091-.455A1.326,1.326,0,0,0,61.652.91H59.831a1.326,1.326,0,0,0-1.275.91H58.01a1.26,1.26,0,0,0-.41.046A2.256,2.256,0,0,1,59.831,0h1.821a2.29,2.29,0,0,1,2.231,1.821A1.549,1.549,0,0,1,63.928,2.276Z" transform="translate(721.288 463.605)"/><path class="d" d="M222.718,88.91h-5.463a.455.455,0,0,1,0-.91h5.463a.455.455,0,1,1,0,.91Z" transform="translate(571.147 380.612)"/><path class="d" d="M222.718,152.91h-5.463a.455.455,0,0,1,0-.91h5.463a.455.455,0,0,1,0,.91Z" transform="translate(571.147 320.254)"/><path class="d" d="M219.076,216.91h-1.821a.455.455,0,0,1,0-.91h1.821a.455.455,0,1,1,0,.91Z" transform="translate(571.147 259.896)"/><path class="d" d="M283.076,216.91h-1.821a.455.455,0,0,1,0-.91h1.821a.455.455,0,1,1,0,.91Z" transform="translate(510.789 259.896)"/><path class="d" d="M94.718,312.91H89.255a.455.455,0,1,1,0-.91h5.463a.455.455,0,1,1,0,.91Z" transform="translate(691.863 169.359)"/><path class="d" d="M222.718,312.91h-5.463a.455.455,0,0,1,0-.91h5.463a.455.455,0,1,1,0,.91Z" transform="translate(571.147 169.359)"/><path class="d" d="M222.718,184.91h-5.463a.455.455,0,0,1,0-.91h5.463a.455.455,0,1,1,0,.91Z" transform="translate(571.147 290.075)"/><path class="d" d="M98.36,280.91h-9.1a.455.455,0,0,1,0-.91h9.1a.455.455,0,0,1,0,.91Z" transform="translate(691.863 199.538)"/><path class="d" d="M283.076,280.91h-1.821a.455.455,0,0,1,0-.91h1.821a.455.455,0,1,1,0,.91Z" transform="translate(510.789 199.538)"/><path class="d" d="M219.076,120.91h-1.821a.455.455,0,0,1,0-.91h1.821a.455.455,0,1,1,0,.91Z" transform="translate(571.147 350.433)"/><path class="d" d="M283.076,120.91h-1.821a.455.455,0,0,1,0-.91h1.821a.455.455,0,1,1,0,.91Z" transform="translate(510.789 350.433)"/><path class="d" d="M222.718,248.91h-5.463a.455.455,0,0,1,0-.91h5.463a.455.455,0,1,1,0,.91Z" transform="translate(571.147 229.717)"/></g></svg>