<svg xmlns="http://www.w3.org/2000/svg" width="32.068" height="32.068" viewBox="0 0 32.068 32.068"><defs><style>.a{fill:#ed4c78;}</style></defs><path class="a" d="M16,32.034A16.034,16.034,0,1,0-.034,16,16.051,16.051,0,0,0,16,32.034Zm0-31A14.966,14.966,0,1,1,1.034,16,14.983,14.983,0,0,1,16,1.034ZM9.987,26.414a.537.537,0,0,0,.725-.186L16,17.529l5.289,8.7a.537.537,0,0,0,.725.186A11.22,11.22,0,0,0,28.035,16.5.487.487,0,0,0,27.5,16H16.9l5.311-9.693a.535.535,0,0,0-.2-.721,12.17,12.17,0,0,0-12.026,0,.534.534,0,0,0-.2.721L15.1,16H4.5a.487.487,0,0,0-.534.5,11.22,11.22,0,0,0,6.021,9.914ZM26.952,17a10.132,10.132,0,0,1-5.026,8.218L16.95,17ZM21.02,6.261,16,15.391l-5.019-9.13a11.049,11.049,0,0,1,10.039,0ZM15.05,17l-4.975,8.218A10.128,10.128,0,0,1,5.048,17h10Z" transform="translate(0.034 0.034)"/></svg>