<svg xmlns="http://www.w3.org/2000/svg" width="18.91" height="17.019" viewBox="0 0 18.91 17.019"><defs><style>.a{fill:#204f79;}</style></defs><path class="a" d="M11.455,6.782V3H2V20.019H20.91V6.782ZM5.782,18.128H3.891V16.237H5.782Zm0-3.782H3.891V12.455H5.782Zm0-3.782H3.891V8.673H5.782Zm0-3.782H3.891V4.891H5.782ZM9.564,18.128H7.673V16.237H9.564Zm0-3.782H7.673V12.455H9.564Zm0-3.782H7.673V8.673H9.564Zm0-3.782H7.673V4.891H9.564Zm9.455,11.346H11.455V16.237h1.891V14.346H11.455V12.455h1.891V10.564H11.455V8.673h7.564Zm-1.891-7.564H15.237v1.891h1.891Zm0,3.782H15.237v1.891h1.891Z" transform="translate(-2 -3)"/></svg>