<svg xmlns="http://www.w3.org/2000/svg" width="19.526" height="23.797" viewBox="0 0 19.526 23.797"><defs><style>.a{fill:#878787;}</style></defs><path class="a" d="M13.763,26.3A2.448,2.448,0,0,0,16.2,23.856H11.322A2.448,2.448,0,0,0,13.763,26.3Zm7.322-7.322v-6.1c0-3.746-1.989-6.883-5.492-7.713v-.83a1.831,1.831,0,1,0-3.661,0v.83c-3.49.83-5.492,3.954-5.492,7.713v6.1L4,21.416v1.22H23.526v-1.22ZM18.644,20.2H8.881V12.873c0-3.026,1.843-5.492,4.881-5.492s4.881,2.465,4.881,5.492Z" transform="translate(-4 -2.5)"/></svg>