<svg xmlns="http://www.w3.org/2000/svg" width="14.549" height="14.549" viewBox="0 0 14.549 14.549"><defs><style>.a{fill:#204f79;}</style></defs><path class="a" d="M11.275,5.728a1.91,1.91,0,1,1-1.91,1.91,1.909,1.909,0,0,1,1.91-1.91m0,8.184c2.7,0,5.547,1.328,5.547,1.91v1H5.728v-1c0-.582,2.846-1.91,5.547-1.91m0-9.912a3.637,3.637,0,1,0,3.637,3.637A3.636,3.636,0,0,0,11.275,4Zm0,8.184C8.847,12.184,4,13.4,4,15.821v2.728H18.549V15.821C18.549,13.4,13.7,12.184,11.275,12.184Z" transform="translate(-4 -4)"/></svg>