<svg xmlns="http://www.w3.org/2000/svg" width="37.508" height="37.5" viewBox="0 0 37.508 37.5"><defs><style>.a{fill:#5e5e5e;stroke:#484848;stroke-width:0.5px;}</style></defs><path class="a" d="M16.977,16.995a.579.579,0,0,0,.382-.143L30.444,5.379l-.763-.869L16.6,15.981a.579.579,0,0,0,.382,1.014ZM11.78,37A11.052,11.052,0,0,0,23.125,26.016a10.714,10.714,0,0,0-.923-4.385l5.229-2.614a.579.579,0,0,0,.319-.517V13.875h3.469l.131-.007c.77-.052,1-.3,1.026-1.149V8.094h3.469a1.981,1.981,0,0,1,.321.027.709.709,0,0,0,.628-.141.8.8,0,0,0,.214-.7C37,7.192,37,7.082,37,6.937V1.7A1.7,1.7,0,0,0,35.3,0h-4.48A1.711,1.711,0,0,0,29.7.421L14.453,13.787a15.757,15.757,0,0,0-2.674-.346A11.779,11.779,0,1,0,11.78,37Zm0-22.4a15.4,15.4,0,0,1,2.722.379.572.572,0,0,0,.5-.131L30.461,1.293a.549.549,0,0,1,.36-.136H35.3a.542.542,0,0,1,.542.542V6.937H31.8a.578.578,0,0,0-.578.578v5.2H27.172a.578.578,0,0,0-.578.578v4.846l-5.462,2.731a.578.578,0,0,0-.21.856,8.4,8.4,0,0,1,1.048,4.286A9.908,9.908,0,0,1,11.78,35.844a10.623,10.623,0,1,1,0-21.246ZM9.828,31.219a4.047,4.047,0,1,0-4.047-4.047A4.051,4.051,0,0,0,9.828,31.219Zm0-6.937a2.891,2.891,0,1,1-2.891,2.891A2.895,2.895,0,0,1,9.828,24.281Z" transform="translate(0.25 0.25)"/></svg>