<svg xmlns="http://www.w3.org/2000/svg" width="18.199" height="14.009" viewBox="0 0 18.199 14.009"><defs><style>.a{fill:#204f79;stroke:#204f79;stroke-width:0.6px;}</style></defs><path class="a" d="M16.342,0a1.252,1.252,0,0,0-.833,2.191L11.821,8.071a1.242,1.242,0,0,0-1.426.3l-3.8-2.407A1.246,1.246,0,0,0,6.7,5.447a1.257,1.257,0,1,0-2.077.945l-2.889,4.6a1.245,1.245,0,0,0-.481-.1,1.27,1.27,0,1,0,.834.323L4.984,6.613a1.238,1.238,0,0,0,1.375-.305l3.8,2.409A1.257,1.257,0,1,0,12.17,8.3l3.692-5.886A1.257,1.257,0,1,0,16.342,0ZM2.1,12.152a.838.838,0,1,1-.838-.838A.839.839,0,0,1,2.1,12.152ZM5.447,6.285a.838.838,0,1,1,.838-.838A.839.839,0,0,1,5.447,6.285Zm5.866,3.771a.838.838,0,1,1,.838-.838A.839.839,0,0,1,11.314,10.057ZM16.342,2.1a.838.838,0,1,1,.838-.838A.839.839,0,0,1,16.342,2.1Z" transform="translate(0.3 0.3)"/></svg>