<svg xmlns="http://www.w3.org/2000/svg" width="23.14" height="19.834" viewBox="0 0 23.14 19.834"><defs><style>.a{fill:#5e5e5e;}</style></defs><path class="a" d="M23.643,14.664H14.056c-.912,0-.992.739-.992,1.653s.08,1.653.992,1.653h9.587c.912,0,.992-.739.992-1.653S24.555,14.664,23.643,14.664Zm3.306,8.264H14.056c-.912,0-.992.739-.992,1.653s.08,1.653.992,1.653H26.948c.912,0,.992-.739.992-1.653S27.861,22.929,26.948,22.929ZM14.056,9.706H26.948c.912,0,.992-.739.992-1.653S27.861,6.4,26.948,6.4H14.056c-.912,0-.992.739-.992,1.653S13.144,9.706,14.056,9.706ZM8.767,14.664H5.792c-.912,0-.992.739-.992,1.653s.08,1.653.992,1.653H8.767c.912,0,.992-.739.992-1.653S9.679,14.664,8.767,14.664Zm0,8.264H5.792c-.912,0-.992.739-.992,1.653s.08,1.653.992,1.653H8.767c.912,0,.992-.739.992-1.653S9.679,22.929,8.767,22.929Zm0-16.529H5.792c-.912,0-.992.739-.992,1.653s.08,1.653.992,1.653H8.767c.912,0,.992-.739.992-1.653S9.679,6.4,8.767,6.4Z" transform="translate(-4.8 -6.4)"/></svg>