<svg xmlns="http://www.w3.org/2000/svg" width="12.623" height="16.829" viewBox="0 0 12.623 16.829"><defs><style>.a{fill:#204f79;}</style></defs><path class="a" d="M10.312,9.333A3.155,3.155,0,1,0,7.156,6.177,3.159,3.159,0,0,0,10.312,9.333Zm0-5.785a2.63,2.63,0,1,1-2.63,2.63,2.632,2.632,0,0,1,2.63-2.63Zm0-3.548A6.3,6.3,0,0,0,4,6.311c0,3.681,3.156,7.447,5.457,10.094a1.285,1.285,0,0,0,.834.423h.04a1.287,1.287,0,0,0,.834-.423c2.3-2.647,5.457-6.412,5.457-10.094A6.3,6.3,0,0,0,10.311,0Zm.062,15.716a.638.638,0,0,1-.071.052.525.525,0,0,0-.068-.07C8.306,13.479,5.052,9.737,5.052,6.311a5.26,5.26,0,1,1,10.519,0c0,3.425-3.254,7.168-5.2,9.4Z" transform="translate(-4)"/></svg>