<svg xmlns="http://www.w3.org/2000/svg" width="15.123" height="17.289" viewBox="0 0 15.123 17.289"><defs><style>.a{fill:#204f79;stroke:#204f79;stroke-width:0.5px;}</style></defs><path class="a" d="M12.727,17.789a.786.786,0,0,0,.812-.812V1.812A.786.786,0,0,0,12.727,1H1.9a.786.786,0,0,0-.812.812v.632a.271.271,0,0,0,.542,0V1.812A.249.249,0,0,1,1.9,1.542H4.366V17.248H1.9a.249.249,0,0,1-.271-.271v-.5a.271.271,0,0,0-.542,0v.5a.786.786,0,0,0,.812.812ZM4.874,1.542h7.853A.249.249,0,0,1,13,1.812V16.977a.249.249,0,0,1-.271.271H4.874Zm9.749,14.894V2.354a.271.271,0,1,0-.542,0V16.435a.271.271,0,0,0,.542,0ZM.271,6.416H2.437a.271.271,0,0,0,0-.542H.271a.271.271,0,0,0,0,.542Zm0-2.166H2.437a.271.271,0,0,0,0-.542H.271a.271.271,0,1,0,0,.542Zm0,4.333H2.437a.271.271,0,0,0,0-.542H.271a.271.271,0,0,0,0,.542Zm0,4.333H2.437a.271.271,0,1,0,0-.542H.271a.271.271,0,1,0,0,.542Zm0-2.166H2.437a.271.271,0,1,0,0-.542H.271a.271.271,0,1,0,0,.542Zm0,4.333H2.437a.271.271,0,1,0,0-.542H.271a.271.271,0,1,0,0,.542Z" transform="translate(0.25 -0.75)"/></svg>