<svg xmlns="http://www.w3.org/2000/svg" width="28.98" height="33.199" viewBox="0 0 28.98 33.199"><defs><style>.a{fill:#484848;stroke:#484848;stroke-width:0.5px;}</style></defs><path class="a" d="M24.788,33.7a1.531,1.531,0,0,0,1.582-1.582V2.582A1.531,1.531,0,0,0,24.788,1H3.692A1.531,1.531,0,0,0,2.11,2.582V3.813a.527.527,0,1,0,1.055,0V2.582a.485.485,0,0,1,.527-.527H8.5V32.644H3.692a.485.485,0,0,1-.527-.527V31.15a.527.527,0,1,0-1.055,0v.967A1.531,1.531,0,0,0,3.692,33.7ZM9.493,2.055H24.788a.485.485,0,0,1,.527.527V32.117a.485.485,0,0,1-.527.527H9.493ZM28.48,31.062V3.637a.527.527,0,0,0-1.055,0V31.062a.527.527,0,0,0,1.055,0ZM.527,11.548H4.747a.527.527,0,0,0,0-1.055H.527a.527.527,0,0,0,0,1.055Zm0-4.219H4.747a.527.527,0,0,0,0-1.055H.527a.527.527,0,0,0,0,1.055Zm0,8.438H4.747a.527.527,0,0,0,0-1.055H.527a.527.527,0,0,0,0,1.055Zm0,8.438H4.747a.527.527,0,0,0,0-1.055H.527a.527.527,0,0,0,0,1.055Zm0-4.219H4.747a.527.527,0,0,0,0-1.055H.527a.527.527,0,0,0,0,1.055Zm0,8.438H4.747a.527.527,0,0,0,0-1.055H.527a.527.527,0,0,0,0,1.055Z" transform="translate(0.25 -0.75)"/></svg>