<svg xmlns="http://www.w3.org/2000/svg" width="39.244" height="35.969" viewBox="0 0 39.244 35.969"><defs><style>.a{fill:#484848;stroke:#484848;}</style></defs><path class="a" d="M.732,3.278a.547.547,0,0,0-.546.546V22.4a1.641,1.641,0,0,0,1.639,1.639h30.6A1.641,1.641,0,0,0,34.058,22.4V3.824a.546.546,0,1,0-1.093,0V22.4a.547.547,0,0,1-.546.546H1.824a.547.547,0,0,1-.546-.546V3.824A.547.547,0,0,0,.732,3.278ZM35.7,0H-1.454A.547.547,0,0,0-2,.546a.547.547,0,0,0,.546.546H35.7A.546.546,0,1,0,35.7,0ZM13.138,8.9a.547.547,0,0,0-.736-.034L5.845,14.33a.547.547,0,1,0,.7.84l6.173-5.144,6.2,6.2a.541.541,0,0,0,.386.161.549.549,0,0,0,.387-.16L27.5,8.421v4.145a.546.546,0,0,0,1.093,0V7.1a.547.547,0,0,0-.546-.546H22.585a.546.546,0,0,0,0,1.093H26.73l-7.423,7.423ZM8.989,34.673a.546.546,0,0,0,.738.231l7.4-3.874,7.4,3.874a.54.54,0,0,0,.254.062.546.546,0,0,0,.253-1.03l-7.532-3.945a.54.54,0,0,0,.176-.4V26.771a.546.546,0,0,0-1.093,0v2.822a.54.54,0,0,0,.176.4L9.22,33.934a.548.548,0,0,0-.231.739Z" transform="translate(2.5 0.5)"/></svg>