<svg xmlns="http://www.w3.org/2000/svg" width="33.112" height="32.988" viewBox="0 0 33.112 32.988"><defs><style>.a{fill:#484848;stroke:#484848;}</style></defs><path class="a" d="M26.631,4H31.5a.5.5,0,0,0,0-1h-6a.5.5,0,0,0-.5.5v6a.5.5,0,0,0,1,0V4.783l.611.611A15,15,0,0,1,10.56,29.981a.5.5,0,1,0-.362.931A16,16,0,0,0,27.318,4.687L26.631,4ZM6.5,22a.5.5,0,0,0-.5.5v4.84l-.713-.713A15,15,0,0,1,21.123,1.958a.5.5,0,0,0,.348-.938A16,16,0,0,0,4.58,27.333L5.246,28H.5a.5.5,0,0,0,0,1H6.356a.891.891,0,0,0,.474-.123s.005-.009.009-.013A.5.5,0,0,0,7,28.5v-6a.5.5,0,0,0-.5-.5Z" transform="translate(0.607 0.488)"/></svg>