<svg xmlns="http://www.w3.org/2000/svg" width="33.717" height="39.776" viewBox="0 0 33.717 39.776"><defs><style>.a{fill:#484848;stroke:#484848;}</style></defs><path class="a" d="M16.359,0C5.529,0,.354,6.116.138,6.376A.613.613,0,0,0,0,6.763V18.946c0,10.3,9.483,16.423,13.56,18.575a.606.606,0,0,0,.566-1.072C9.3,33.9,1.212,28.244,1.212,18.945V6.993c.851-.915,5.613-5.57,14.541-5.774V38.17a.606.606,0,0,0,1.06.4c1.984-.853,15.9-7.289,15.9-19.789V6.665a.605.605,0,0,0-.139-.387c-.179-.217-4.5-5.3-13.5-6.209a.614.614,0,0,0-.664.542.606.606,0,0,0,.542.664A20.2,20.2,0,0,1,31.506,6.9V18.782c0,10.848-11.346,16.9-14.541,18.393V.606A.606.606,0,0,0,16.359,0Z" transform="translate(0.5 0.5)"/></svg>