<svg xmlns="http://www.w3.org/2000/svg" width="17.599" height="15.399" viewBox="0 0 17.599 15.399"><defs><style>.a{fill:#204f79;}</style></defs><path class="a" d="M17.557,11.05,15.356,2.8A1.1,1.1,0,0,0,14.3,2H3.3a1.1,1.1,0,0,0-1.057.8L.042,11.05a1.11,1.11,0,0,0-.042.3V15.2a2.2,2.2,0,0,0,2.2,2.2H15.4a2.2,2.2,0,0,0,2.2-2.2V11.35A1.11,1.11,0,0,0,17.557,11.05ZM16.5,15.2a1.1,1.1,0,0,1-1.1,1.1H2.2a1.1,1.1,0,0,1-1.1-1.1V11.35L3.3,3.1h11l2.2,8.25Zm-3.442-11H4.542a.551.551,0,0,0-.532.409l-1.895,6.6a.55.55,0,0,0,.531.691H5.159l.8,1.592a1.1,1.1,0,0,0,.984.608H10.66a1.1,1.1,0,0,0,.984-.608l.8-1.592h2.512a.551.551,0,0,0,.532-.692l-1.895-6.6a.55.55,0,0,0-.532-.408Zm.3,6.6H12.44a1.094,1.094,0,0,0-.984.608L10.66,13H6.939l-.8-1.592a1.094,1.094,0,0,0-.984-.608H2.934L4.542,4.75h8.516l1.608,6.05Z" transform="translate(0 -2)"/></svg>