<svg xmlns="http://www.w3.org/2000/svg" width="37.785" height="41.642" viewBox="0 0 37.785 41.642"><defs><style>.a{fill:#484848;stroke:#484848;stroke-width:0.5px;}</style></defs><path class="a" d="M19.285,40.5V28.285c0-.355-.171-1.286-.526-1.286a.754.754,0,0,0-.76.643V40.5a.753.753,0,0,0,.76.643C19.116,41.142,19.285,40.854,19.285,40.5ZM19.4,2.008V.643a.643.643,0,1,0-1.286,0V2.008a.643.643,0,1,0,1.286,0ZM5,4.463.415,8.06A1.285,1.285,0,0,0,0,9a1.312,1.312,0,0,0,.455.975L4.961,13.5a2.7,2.7,0,0,0,1.637.639H24.377a1.334,1.334,0,0,0,1.337-1.328V5.185a1.334,1.334,0,0,0-1.337-1.328H6.6A2.667,2.667,0,0,0,5,4.463Zm19.427,8.352a.051.051,0,0,1-.051.042H6.6a1.466,1.466,0,0,1-.8-.332L1.248,9.037l4.585-3.6a1.454,1.454,0,0,1,.765-.3l17.83.042v7.629Zm7.9,3.253a2.7,2.7,0,0,0-1.637-.639H12.908a1.334,1.334,0,0,0-1.337,1.328v7.631a1.334,1.334,0,0,0,1.337,1.327H30.687a2.674,2.674,0,0,0,1.6-.606l4.585-3.6a1.285,1.285,0,0,0,.415-.94,1.312,1.312,0,0,0-.455-.975l-4.506-3.529Zm-19.467.647h17.83a1.466,1.466,0,0,1,.8.332l4.546,3.488-4.585,3.6a1.454,1.454,0,0,1-.765.3H12.857V16.714Z" transform="translate(0.25 0.25)"/></svg>