<svg xmlns="http://www.w3.org/2000/svg" width="35.114" height="26.771" viewBox="0 0 35.114 26.771"><defs><style>.a{fill:#b0b515;}</style></defs><path class="a" d="M34.952,10.951a.446.446,0,0,0-.629.057l-1.98,2.376a.151.151,0,0,0-.134,0H31.045l1.481-1.805a.447.447,0,0,0-.686-.572l-1.958,2.378H28.562l1.481-1.805a.447.447,0,1,0-.686-.572L27.4,13.386H26.77a13.651,13.651,0,1,0-.042.837H27.4L29.357,16.6a.447.447,0,0,0,.686-.572l-1.482-1.805h1.321L31.84,16.6a.447.447,0,0,0,.686-.572l-1.481-1.805h1.164a.153.153,0,0,0,.135,0l1.98,2.376a.447.447,0,0,0,.686-.572L33.157,13.8,35.01,11.58a.446.446,0,0,0-.058-.629ZM13.386,25.935A12.549,12.549,0,1,1,25.933,13.386h-2.51a10.127,10.127,0,1,0-.042.837h2.51A12.559,12.559,0,0,1,13.386,25.935Zm6.691-12.549a6.767,6.767,0,1,0-.061.837h2.528a9.155,9.155,0,1,1,.043-.837Zm-3.347,0a3.435,3.435,0,1,0-.125.837h2.567a5.8,5.8,0,1,1,.069-.837Zm-2.926.837h1.928a2.47,2.47,0,1,1,.161-.837H13.8a.419.419,0,1,0,0,.837Z"/></svg>