<svg xmlns="http://www.w3.org/2000/svg" width="35.627" height="35.69" viewBox="0 0 35.627 35.69"><defs><style>.a{fill:#484848;stroke:#484848;stroke-width:0.5px;}</style></defs><path class="a" d="M31.015,1.483A.546.546,0,0,0,30.86.6a6.545,6.545,0,0,0-7.436,1.3,7.151,7.151,0,0,0-1.64,7.26L9.163,21.787A6.462,6.462,0,0,0,6.98,21.42a7.066,7.066,0,0,0-4.987,2.048,6.653,6.653,0,0,0-1.4,7.38.547.547,0,0,0,.889.167L5.3,27.176a.632.632,0,0,1,.867-.074l1.648,1.725a.605.605,0,0,1-.024.87l-3.8,3.828a.546.546,0,0,0,.154.879,6.6,6.6,0,0,0,2.834.643,6.463,6.463,0,0,0,4.6-1.947,7.145,7.145,0,0,0,1.639-7.259L25.837,13.219a6.473,6.473,0,0,0,2.184.368,7.066,7.066,0,0,0,4.987-2.048,6.653,6.653,0,0,0,1.4-7.38.545.545,0,0,0-.4-.319.555.555,0,0,0-.489.152L29.7,7.83a.622.622,0,0,1-.876-.011l-1.64-1.64a.6.6,0,0,1,0-.869l3.83-3.827Zm-4.6,5.469,1.64,1.64a1.743,1.743,0,0,0,2.426.01l3.2-3.22a5.569,5.569,0,0,1-1.448,5.388,5.962,5.962,0,0,1-4.211,1.725,5.346,5.346,0,0,1-2.1-.416.546.546,0,0,0-.6.116L12.193,25.321a.545.545,0,0,0-.117.6A6.089,6.089,0,0,1,10.8,32.331a5.421,5.421,0,0,1-5.453,1.376l3.217-3.238a1.692,1.692,0,0,0,.032-2.4L6.952,26.34a1.747,1.747,0,0,0-2.426.068l-3.2,3.22A5.569,5.569,0,0,1,2.77,24.24a5.962,5.962,0,0,1,4.211-1.725,5.346,5.346,0,0,1,2.1.416.545.545,0,0,0,.6-.116L22.811,9.688a.545.545,0,0,0,.117-.6A6.091,6.091,0,0,1,24.2,2.678,5.422,5.422,0,0,1,29.65,1.3L26.412,4.541a1.692,1.692,0,0,0,0,2.412Zm5.539,26.573a.651.651,0,0,1-.9,0L20.075,22.585a.547.547,0,0,0-.772.776L30.273,34.3a1.721,1.721,0,0,0,1.227.511h0a1.723,1.723,0,0,0,1.234-.518L34.3,32.656a1.694,1.694,0,0,0,0-2.413L23.358,19.3a.547.547,0,1,0-.773.773L33.522,31.015a.6.6,0,0,1-.008.877l-1.563,1.633ZM6.4,3.443,3.122.162a.547.547,0,0,0-.773,0L.161,2.35a.547.547,0,0,0,0,.773L3.442,6.4a.542.542,0,0,0,.386.161.549.549,0,0,0,.387-.16L4.922,5.7l8.363,8.363a.547.547,0,1,0,.774-.772L5.7,4.925,6.4,4.218a.548.548,0,0,0,0-.774Zm-2.575,1.8L1.32,2.737,2.735,1.323,5.243,3.831,3.828,5.245Z" transform="translate(0.313 0.392)"/></svg>