<svg id="avatar-active" xmlns="http://www.w3.org/2000/svg" width="1024.68" height="1161.385" viewBox="0 0 1024.68 1161.385">
  <g id="Groupe_5" data-name="Groupe 5" transform="translate(0 0)">
    <path id="Tracé_11" data-name="Tracé 11" d="M757.892,49.5C696.213,91.282,622.6,117.147,541.023,117.147S385.832,91.282,324.154,49.5C149.067,123.116,27.7,292.234,27.7,544.916v27.855H1052.355V544.916C1054.345,290.244,932.978,123.116,757.892,49.5Z" transform="translate(-27.7 588.614)" fill="#005ea3"/>
    <path id="Tracé_12" data-name="Tracé 12" d="M200.149,629.2c49.741,27.855,105.45,45.761,167.128,45.761S484.665,659.048,534.406,629.2C631.9,571.5,697.555,466.055,697.555,344.688c0-87.543-33.824-169.118-91.523-226.817C546.344,54.2,460.79,16.4,367.277,16.4c-91.523,0-173.1,37.8-232.786,97.492S37,255.155,37,346.677C37,466.055,102.657,571.5,200.149,629.2Z" transform="translate(148.035 -16.4)" fill="#005ea3"/>
  </g>
</svg>
