<svg id="avatar" xmlns="http://www.w3.org/2000/svg" width="774.327" height="877.632" viewBox="0 0 774.327 877.632">
  <g id="Groupe_5" data-name="Groupe 5" transform="translate(0 0)">
    <path id="Tracé_11" data-name="Tracé 11" d="M579.489,49.5C532.88,81.074,477.25,100.619,415.606,100.619S298.332,81.074,251.723,49.5C119.414,105.13,27.7,232.929,27.7,423.874v21.049H802.008V423.874C803.512,231.425,711.8,105.13,579.489,49.5Z" transform="translate(-27.7 432.708)" fill="#6d6d6d"/>
    <path id="Tracé_12" data-name="Tracé 12" d="M160.288,479.482c37.588,21.049,79.686,34.581,126.295,34.581s88.707-12.028,126.3-34.581c73.672-43.6,123.288-123.288,123.288-215,0-66.155-25.56-127.8-69.162-171.4C421.9,44.967,357.248,16.4,286.583,16.4c-69.162,0-130.806,28.567-175.911,73.672S37,196.821,37,265.983C37,356.194,86.616,435.88,160.288,479.482Z" transform="translate(102.827 -16.4)" fill="#6d6d6d"/>
  </g>
</svg>
