<svg xmlns="http://www.w3.org/2000/svg" width="913.666" height="1015.185" viewBox="0 0 913.666 1015.185">
  <path id="ic_assignment-active" d="M815.148,102.518H602.974C581.655,43.638,525.82,1,459.833,1S338.011,43.638,316.692,102.518H104.519C48.683,102.518,3,148.2,3,204.037v710.63c0,55.835,45.683,101.518,101.519,101.518H815.148c55.835,0,101.518-45.683,101.518-101.518V204.037C916.666,148.2,870.983,102.518,815.148,102.518Zm-355.315,0a50.759,50.759,0,1,1-50.759,50.759A50.908,50.908,0,0,1,459.833,102.518ZM561.352,813.148H206.037V711.629H561.352ZM713.629,610.111H206.037V508.592H713.629Zm0-203.037H206.037V305.555H713.629Z" transform="translate(-3 -1)" fill="#005ea3"/>
</svg>
