<svg id="m-history--active" xmlns="http://www.w3.org/2000/svg" width="1407.381" height="1092.954" viewBox="0 0 1407.381 1092.954">
  <path id="Tracé_16" data-name="Tracé 16" d="M1398.2,642.279H877.12c-17.815,0-33.4-8.907-40.084-24.5l-33.4-66.806L710.106,800.386c-6.681,17.815-24.5,28.949-42.311,28.949h0c-20.042,0-35.63-13.361-42.31-31.176L523.049,490.852,474.058,613.33c-6.68,17.815-24.5,28.949-42.31,28.949H262.507a44.537,44.537,0,0,1,0-89.075H400.572l84.62-209.325c6.681-17.815,24.5-28.949,44.537-28.949s35.629,13.361,42.31,31.176L672.249,648.96l84.621-227.14c6.681-17.815,22.269-28.949,40.083-28.949s35.63,8.907,42.311,24.5l66.806,133.612h340.709c22.268-57.9,35.629-118.024,35.629-182.6,0-169.241-97.982-307.307-276.13-340.709-273.9-51.218-354.071,229.366-354.071,229.366S572.04-21.325,298.136,27.666C119.988,61.069,22.006,199.134,22.006,368.375c-2.227,436.465,630.2,746,630.2,746s320.668-158.107,503.27-405.289h240.5c20.042,0,33.4-15.588,33.4-33.4s-13.361-31.176-31.176-33.4" transform="translate(-22 -21.419)" fill="#005ea3"/>
</svg>
