<svg id="m-history" xmlns="http://www.w3.org/2000/svg" width="1239.407" height="962.508" viewBox="0 0 1239.407 962.508">
  <path id="Tracé_16" data-name="Tracé 16" d="M1233.952,568.178H775.06c-15.688,0-29.416-7.844-35.3-21.572l-29.416-58.832L627.979,707.415c-5.883,15.689-21.572,25.494-37.261,25.494h0c-17.65,0-31.377-11.766-37.261-27.455l-90.21-270.629L420.1,542.684c-5.883,15.689-21.572,25.494-37.26,25.494H233.8a39.222,39.222,0,0,1,0-78.443H355.389L429.91,305.394c5.883-15.689,21.572-25.494,39.222-25.494s31.377,11.766,37.26,27.455L594.64,574.062l74.521-200.03c5.883-15.689,19.611-25.494,35.3-25.494s31.377,7.844,37.261,21.572l58.832,117.665H1100.6c19.611-50.988,31.377-103.937,31.377-160.809,0-149.042-86.287-270.629-243.173-300.045C647.589-18.184,576.99,228.911,576.99,228.911S506.392-16.223,265.179,26.92C108.293,56.337,22,177.923,22,326.966,20.044,711.337,576.99,983.927,576.99,983.927s282.4-139.236,443.2-356.917h211.8c17.65,0,29.416-13.727,29.416-29.416s-11.766-27.455-27.455-29.416" transform="translate(-22 -21.419)" fill="#6d6d6d"/>
</svg>
