<svg id="mfa-active" xmlns="http://www.w3.org/2000/svg" width="991.27" height="1104.323" viewBox="0 0 991.27 1104.323">
  <path id="Tracé_9" data-name="Tracé 9" d="M27.2,376.853c5.625-65.624,9.375-131.247,15-196.871,1.875-28.125,11.25-35.624,37.5-43.124L507.191,18.735c13.125-3.75,24.375-1.875,37.5,1.875,120,33.749,241.87,67.5,361.868,101.248,22.5,5.625,43.124,13.125,65.624,18.75,18.749,5.625,30,16.875,31.874,35.624,3.75,43.124,7.5,84.373,11.25,127.5a1303.916,1303.916,0,0,1-5.625,241.871c-9.375,78.749-24.375,155.622-56.249,228.746-18.75,45-46.874,84.373-78.748,121.873-80.623,95.623-181.871,165-298.119,210-11.25,3.75-20.625,7.5-31.874,11.25-13.125,5.625-28.125,3.75-41.249,0-71.249-22.5-136.872-56.249-198.746-99.373a706.4,706.4,0,0,1-180-185.621C94.7,785.6,75.949,733.1,62.824,678.722,38.45,581.224,30.95,481.851,30.95,382.478a23.2,23.2,0,0,0-3.75-5.625M479.066,577.474a25.88,25.88,0,0,0-5.625-7.5L359.069,455.6c-18.75-18.75-39.374-18.75-58.124,0L269.07,487.476c-16.875,16.874-16.875,37.5,0,54.374,60,60,120,120,181.872,180,20.625,20.625,39.374,20.625,60,0l97.5-97.5L805.31,427.477c18.75-18.75,18.75-39.374,0-58.124-11.25-11.25-20.625-22.5-31.874-31.874a40.826,40.826,0,0,0-15-9.375c-15-5.625-28.125,0-39.374,11.25C668.438,389.978,617.814,440.6,567.19,493.1c-30,28.124-58.124,54.374-88.123,84.373" transform="translate(-27.2 -16.691)" fill="#005ea3"/>
</svg>
