<svg id="mfa" xmlns="http://www.w3.org/2000/svg" width="797.283" height="888.212" viewBox="0 0 797.283 888.212">
  <path id="Tracé_9" data-name="Tracé 9" d="M27.2,306.371c4.524-52.781,7.54-105.563,12.064-158.344,1.508-22.621,9.048-28.653,30.161-34.685L413.259,18.335c10.556-3.016,19.6-1.508,30.161,1.508,96.515,27.145,194.537,54.289,291.052,81.434,18.1,4.524,34.685,10.556,52.782,15.08,15.08,4.524,24.129,13.572,25.637,28.653,3.016,34.685,6.032,67.862,9.048,102.547a1048.754,1048.754,0,0,1-4.524,194.538c-7.54,63.338-19.6,125.167-45.242,183.981-15.08,36.193-37.7,67.862-63.338,98.023-64.846,76.91-146.28,132.708-239.779,168.9-9.048,3.016-16.588,6.032-25.637,9.048-10.556,4.524-22.621,3.016-33.177,0-57.306-18.1-110.087-45.241-159.852-79.926a568.16,568.16,0,0,1-144.772-149.3c-24.129-37.7-39.209-79.926-49.765-123.66C36.248,470.748,30.216,390.821,30.216,310.9a18.664,18.664,0,0,0-3.016-4.524M390.638,467.732a20.816,20.816,0,0,0-4.524-6.032l-91.991-91.991c-15.08-15.08-31.669-15.08-46.749,0l-25.637,25.637c-13.572,13.572-13.572,30.161,0,43.733,48.257,48.257,96.515,96.515,146.28,144.772,16.588,16.588,31.669,16.588,48.257,0l78.418-78.418L653.037,347.088c15.08-15.08,15.08-31.669,0-46.749-9.048-9.048-16.589-18.1-25.637-25.637a32.837,32.837,0,0,0-12.064-7.54c-12.064-4.524-22.621,0-31.669,9.048-40.717,40.717-81.434,81.434-122.151,123.659-24.129,22.621-46.749,43.733-70.878,67.862" transform="translate(-27.2 -16.691)" fill="#6d6d6d"/>
</svg>
