<svg id="mfedependents" xmlns="http://www.w3.org/2000/svg" width="1265.071" height="1038.278" viewBox="0 0 1265.071 1038.278">
  <g id="Groupe_4" data-name="Groupe 4" transform="translate(0 0)">
    <path id="Tracé_2" data-name="Tracé 2" d="M345.044,40.6c-35.8,25.857-79.562,41.77-125.31,41.77-25.857,0-49.726-3.978-71.605-13.923C136.195,128.118,106.359,183.811,62.6,225.58c63.65,31.825,115.365,77.573,151.167,137.244H514.112v-17.9C516.1,191.767,446.484,86.348,345.044,40.6Z" transform="translate(750.917 369.142)" fill="#6d6d6d"/>
    <path id="Tracé_3" data-name="Tracé 3" d="M174.875,397.918v19.89c19.89,7.956,43.758,11.934,65.638,11.934,35.8,0,67.628-9.945,97.463-27.847,55.693-35.8,95.474-101.441,95.474-177.024a211.159,211.159,0,0,0-53.7-141.222A179.933,179.933,0,0,0,242.5,20c-53.7,0-101.441,21.879-135.255,59.671A216.75,216.75,0,0,0,61.5,157.244c13.924,9.945,25.858,21.879,37.792,35.8C147.029,250.729,174.875,322.334,174.875,397.918Z" transform="translate(730.138 -20)" fill="#6d6d6d"/>
    <path id="Tracé_4" data-name="Tracé 4" d="M465.256,227.57a304.279,304.279,0,0,1-83.54-155.145c-19.89,5.967-41.77,9.945-63.65,9.945-45.748,0-89.507-15.912-125.309-41.77C91.316,86.348,21.7,189.778,21.7,346.912v17.9H314.089C349.892,305.142,401.606,259.395,465.256,227.57Z" transform="translate(-21.7 369.142)" fill="#6d6d6d"/>
    <path id="Tracé_5" data-name="Tracé 5" d="M120.485,400.007c27.846,17.9,61.66,27.847,97.463,27.847,19.89,0,39.781-3.978,57.682-9.945V396.029c0-79.561,27.847-153.156,81.551-208.849a180.9,180.9,0,0,1,41.77-35.8c-9.945-25.858-21.88-47.737-39.781-67.627A179.933,179.933,0,0,0,221.926,20.1c-53.7,0-101.441,21.879-135.254,59.671C48.879,117.563,27,169.278,27,224.971,27,300.555,64.792,366.193,120.485,400.007Z" transform="translate(78.419 -18.111)" fill="#6d6d6d"/>
    <path id="Tracé_6" data-name="Tracé 6" d="M712.562,172.531a27.46,27.46,0,0,1-5.967-7.956c-9.945-11.934-17.9-23.869-29.836-35.8S650.9,104.9,636.979,92.97C629.022,87,623.056,83.025,615.1,77.057c-13.924-9.945-29.836-17.9-45.748-25.857-31.825,23.869-71.605,41.77-111.386,47.737-13.923,7.956-29.836,7.956-45.748,7.956-11.934,0-25.858-1.989-37.792-1.989C330.667,98.937,288.9,81.036,253.094,55.178c-23.869,9.945-45.748,23.868-67.628,39.781a223.442,223.442,0,0,0-39.781,35.8,284.1,284.1,0,0,0-29.835,35.8,27.45,27.45,0,0,0-5.967,7.956c-5.967,7.956-9.945,15.912-15.912,23.868-19.891,31.825-33.814,69.617-43.759,111.386A590.646,590.646,0,0,0,34.3,447.019V468.9H784.168V447.019c0-73.594-11.935-139.233-35.8-194.926C742.4,220.268,728.475,194.411,712.562,172.531Z" transform="translate(216.319 569.381)" fill="#6d6d6d"/>
    <path id="Tracé_7" data-name="Tracé 7" d="M70.936,163.144a182.45,182.45,0,0,0-17.9,45.748c-3.978,15.912-7.956,33.814-9.946,49.726,0,7.956-1.989,17.9-1.989,25.858v7.956c0,13.923,1.989,29.836,3.978,43.759v1.989C53.034,377.96,68.947,413.763,90.826,443.6c3.979,3.978,5.967,7.956,9.945,11.934,5.967,7.956,13.923,15.912,21.879,23.868,3.979,3.978,7.957,7.956,11.935,9.945,7.956,5.967,15.912,13.923,25.857,17.9,9.945,5.967,17.9,9.945,27.847,15.913C204.2,531.116,222.1,535.094,240,539.072c13.923,1.989,27.846,3.978,43.759,3.978a246.9,246.9,0,0,0,53.7-5.966c3.978,0,7.956-1.989,11.934-1.989,5.968-1.989,9.946-3.978,15.913-5.967,15.912-5.967,29.835-11.934,41.77-21.88,13.923-7.956,25.858-17.9,37.792-29.836,37.792-35.8,65.638-85.529,77.573-141.222v-5.967c1.989-13.923,3.978-29.835,3.978-43.759v-1.989c0-17.9-1.989-33.814-3.978-49.726-3.978-15.912-7.956-31.825-13.924-47.737s-11.934-29.836-21.879-43.759c-7.956-13.923-17.9-25.858-27.847-37.792-5.967-7.956-13.923-13.923-21.879-21.879-1.989-1.989-3.978-1.989-3.978-3.978-5.967-5.967-11.934-9.945-19.89-13.923-13.923-9.945-27.847-15.912-43.759-23.869A242.045,242.045,0,0,0,283.763,25.9c-53.7,0-103.43,19.89-145.2,51.715-9.945,7.956-17.9,15.912-25.858,23.868C96.793,121.374,82.87,141.264,70.936,163.144Z" transform="translate(344.774 91.453)" fill="#6d6d6d"/>
  </g>
</svg>
