<svg id="policy-active" xmlns="http://www.w3.org/2000/svg" width="953.619" height="1184.541" viewBox="0 0 953.619 1184.541">
  <path id="Tracé_18" data-name="Tracé 18" d="M865.082,452.446H839.424V324.157C839.424,155.242,702.582,18.4,533.667,18.4H469.523c-168.915,0-305.757,136.842-305.757,305.757v128.29H150.937A119.54,119.54,0,0,0,31.2,572.183V1083.2A119.541,119.541,0,0,0,150.937,1202.94H865.082A119.541,119.541,0,0,0,984.819,1083.2V572.183A119.54,119.54,0,0,0,865.082,452.446ZM548.635,841.591V967.743a38.487,38.487,0,0,1-76.974,0V841.591A92.08,92.08,0,0,1,418.207,758.2c0-51.316,40.625-91.941,91.941-91.941s91.941,40.625,91.941,91.941A92.079,92.079,0,0,1,548.635,841.591ZM743.207,452.446H262.121V324.157c0-115.461,94.079-207.4,207.4-207.4h64.145c115.46,0,207.4,94.079,207.4,207.4v128.29Z" transform="translate(-31.2 -18.4)" fill="#005ea3"/>
</svg>
