<svg id="policy" xmlns="http://www.w3.org/2000/svg" width="861.068" height="1069.577" viewBox="0 0 861.068 1069.577">
  <path id="Tracé_18" data-name="Tracé 18" d="M784.151,410.321H760.984V294.482C760.984,141.961,637.422,18.4,484.9,18.4H426.982C274.461,18.4,150.9,141.961,150.9,294.482V410.321H139.316A107.938,107.938,0,0,0,31.2,518.437V979.861a107.939,107.939,0,0,0,108.116,108.116H784.151A107.939,107.939,0,0,0,892.268,979.861V518.437A107.939,107.939,0,0,0,784.151,410.321ZM498.416,761.7V875.606a34.752,34.752,0,0,1-69.5,0V761.7a83.018,83.018,0,1,1,69.5,0ZM674.1,410.321h-434.4V294.482c0-104.255,84.949-187.272,187.273-187.272H484.9c104.255,0,187.272,84.948,187.272,187.272V410.321Z" transform="translate(-31.2 -18.4)" fill="#6d6d6d"/>
</svg>
